<svg width="10" height="12" viewBox="0 0 10 12" fill="none" xmlns="http://www.w3.org/2000/svg">
<path d="M3.9453 8.59208V1.00208C3.9453 0.736859 4.05066 0.482505 4.2382 0.294969C4.42573 0.107432 4.68009 0.0020752 4.9453 0.0020752C5.21052 0.0020752 5.46487 0.107432 5.65241 0.294969C5.83995 0.482505 5.9453 0.736859 5.9453 1.00208V8.59208L8.2453 6.29208C8.33571 6.18808 8.44663 6.10389 8.5711 6.0448C8.69558 5.9857 8.83093 5.95296 8.96865 5.94864C9.10638 5.94432 9.24352 5.96851 9.37145 6.01969C9.49939 6.07088 9.61536 6.14795 9.7121 6.24607C9.80885 6.3442 9.88427 6.46126 9.93363 6.5899C9.98299 6.71855 10.0052 6.85602 9.99896 6.99367C9.99269 7.13132 9.95804 7.26619 9.89718 7.38982C9.83632 7.51344 9.75057 7.62316 9.6453 7.71208L5.6453 11.7121C5.45837 11.8953 5.20706 11.9979 4.9453 11.9979C4.68355 11.9979 4.43223 11.8953 4.2453 11.7121L0.245303 7.71208C0.0800251 7.52195 -0.00740491 7.27645 0.00049187 7.02466C0.00838865 6.77286 0.11103 6.53332 0.287897 6.35393C0.464763 6.17454 0.702822 6.06851 0.954481 6.05704C1.20614 6.04557 1.45285 6.12951 1.6453 6.29208L3.9453 8.59208Z" fill="black"/>
</svg>
