<svg width="30" height="35" viewBox="0 0 30 35" fill="none" xmlns="http://www.w3.org/2000/svg">
<g clip-path="url(#clip0)">
<path d="M10.1195 9.09506H20.8977V12.346C20.8977 13.7642 20.3304 15.1251 19.32 16.1287C18.3063 17.1341 16.9363 17.6983 15.5086 17.6983C14.0808 17.6983 12.7109 17.1341 11.6972 16.1287C11.1976 15.6335 10.801 15.0443 10.5302 14.3951C10.2594 13.7458 10.1198 13.0494 10.1195 12.346V9.09506Z" fill="white"/>
<path d="M15.5086 0.525983C14.082 0.526327 12.7132 1.08991 11.7 2.09416C11.1998 2.58885 10.8025 3.17768 10.531 3.82668C10.2595 4.47569 10.1192 5.17203 10.1182 5.87553V9.32553H12.3477V5.87553C12.3642 5.05227 12.7047 4.26875 13.2954 3.69507C13.8882 3.11799 14.6827 2.79507 15.51 2.79507C16.3372 2.79507 17.1318 3.11799 17.7245 3.69507C18.3163 4.27189 18.6559 5.05462 18.6723 5.87689V9.32689H20.9018V5.87689C20.902 5.17272 20.7624 4.47551 20.4911 3.82569C20.2198 3.17588 19.8222 2.5864 19.3213 2.09144C18.3076 1.0858 16.9366 0.522888 15.5086 0.525983Z" fill="white"/>
<path d="M29.9945 32.8033L27.4118 10.5392C27.3651 10.1417 27.1733 9.77558 26.8731 9.51098C26.5721 9.2448 26.1841 9.09785 25.7822 9.0978H18.6954V12.2573C18.6953 12.6732 18.6128 13.085 18.4527 13.4688C18.2926 13.8526 18.0581 14.201 17.7627 14.4937C17.1634 15.0888 16.3531 15.4227 15.5086 15.4227C14.6641 15.4227 13.8538 15.0888 13.2545 14.4937C12.9591 14.201 12.7246 13.8526 12.5645 13.4688C12.4044 13.085 12.3219 12.6732 12.3218 12.2573V9.09644H5.24177C4.83813 9.09644 4.45086 9.24371 4.14949 9.50962C3.84983 9.77443 3.6585 10.1406 3.61222 10.5378L1.03358 32.8046C1.00714 33.0326 1.02958 33.2637 1.09942 33.4824C1.16925 33.701 1.28487 33.9023 1.43858 34.0728C1.5928 34.2447 1.78162 34.382 1.99266 34.4758C2.20371 34.5696 2.43219 34.6177 2.66313 34.6169H28.3595C28.5906 34.6176 28.8192 34.5698 29.0306 34.4765C29.242 34.3833 29.4315 34.2467 29.5868 34.0755C29.741 33.9047 29.8571 33.703 29.9273 33.4839C29.9976 33.2648 30.0205 33.0333 29.9945 32.8046V32.8033Z" fill="white"/>
</g>
<defs>
<clipPath id="clip0">
<rect width="30" height="34.0909" fill="white" transform="translate(0 0.52597)"/>
</clipPath>
</defs>
</svg>
