<svg width="151" height="139" viewBox="0 0 151 139" fill="none" xmlns="http://www.w3.org/2000/svg">
<g clip-path="url(#clip0)">
<path d="M128.029 28.1553H17.1963V118.497H128.029V28.1553Z" fill="#27AB83" stroke="#014D40" stroke-linecap="round" stroke-linejoin="round"/>
<path d="M128.029 28.1553H17.1963V29.9311H128.029V28.1553Z" fill="#014D40" stroke="#014D40" stroke-linecap="round" stroke-linejoin="round"/>
<path d="M36.663 22.989H25.729V27.3802H36.663V22.989Z" fill="#014D40" stroke="#014D40" stroke-linecap="round" stroke-linejoin="round"/>
<path d="M48.9277 22.6016H47.4028V27.3802H48.9277V22.6016Z" fill="#014D40" stroke="#014D40" stroke-linecap="round" stroke-linejoin="round"/>
<path d="M129.359 25.4106H15.8335V28.9623H129.359V25.4106Z" fill="white" stroke="#014D40" stroke-linecap="round" stroke-linejoin="round"/>
<path d="M38.8694 36.1626H23.9771V56.1489H38.8694V36.1626Z" fill="#014D40" stroke="#014D40" stroke-linecap="round" stroke-linejoin="round"/>
<path d="M33.3864 37.2603H31.6992V41.9097H33.3864V37.2603Z" fill="white" stroke="#014D40" stroke-linecap="round" stroke-linejoin="round"/>
<path d="M31.1476 37.2603H29.4604V41.9097H31.1476V37.2603Z" fill="white" stroke="#014D40" stroke-linecap="round" stroke-linejoin="round"/>
<path d="M37.9288 37.2603H36.1768V41.9097H37.9288V37.2603Z" fill="white" stroke="#014D40" stroke-linecap="round" stroke-linejoin="round"/>
<path d="M28.9088 37.2603H27.2217V41.9097H28.9088V37.2603Z" fill="white" stroke="#014D40" stroke-linecap="round" stroke-linejoin="round"/>
<path d="M35.6251 37.2603H33.938V41.9097H35.6251V37.2603Z" fill="white" stroke="#014D40" stroke-linecap="round" stroke-linejoin="round"/>
<path d="M37.9287 43.1367H32.2832V55.0833H37.9287V43.1367Z" fill="white" stroke="#014D40" stroke-linecap="round" stroke-linejoin="round"/>
<path d="M26.67 37.2603H24.918V41.9097H26.67V37.2603Z" fill="white" stroke="#014D40" stroke-linecap="round" stroke-linejoin="round"/>
<path d="M30.5634 43.1367H24.918V55.0833H30.5634V43.1367Z" fill="white" stroke="#014D40" stroke-linecap="round" stroke-linejoin="round"/>
<path d="M26.3458 49.5298L25.5996 50.1433" stroke="#014D40" stroke-linecap="round" stroke-linejoin="round"/>
<path d="M30.596 46.1072L27.2866 48.7871" stroke="#014D40" stroke-linecap="round" stroke-linejoin="round"/>
<path d="M33.4835 49.5298L32.7373 50.1433" stroke="#014D40" stroke-linecap="round" stroke-linejoin="round"/>
<path d="M37.7015 46.1072L34.3921 48.7871" stroke="#014D40" stroke-linecap="round" stroke-linejoin="round"/>
<path d="M79.0691 36.1626H64.1768V56.1489H79.0691V36.1626Z" fill="#014D40" stroke="#014D40" stroke-linecap="round" stroke-linejoin="round"/>
<path d="M73.5534 37.2603H71.8662V41.9097H73.5534V37.2603Z" fill="white" stroke="#014D40" stroke-linecap="round" stroke-linejoin="round"/>
<path d="M71.3151 37.2603H69.6279V41.9097H71.3151V37.2603Z" fill="white" stroke="#014D40" stroke-linecap="round" stroke-linejoin="round"/>
<path d="M78.0958 37.2603H76.3438V41.9097H78.0958V37.2603Z" fill="white" stroke="#014D40" stroke-linecap="round" stroke-linejoin="round"/>
<path d="M69.1085 37.2603H67.4214V41.9097H69.1085V37.2603Z" fill="white" stroke="#014D40" stroke-linecap="round" stroke-linejoin="round"/>
<path d="M75.7921 37.2603H74.105V41.9097H75.7921V37.2603Z" fill="white" stroke="#014D40" stroke-linecap="round" stroke-linejoin="round"/>
<path d="M78.0956 43.1367H72.4502V55.0833H78.0956V43.1367Z" fill="white" stroke="#014D40" stroke-linecap="round" stroke-linejoin="round"/>
<path d="M66.8375 37.2603H65.0854V41.9097H66.8375V37.2603Z" fill="white" stroke="#014D40" stroke-linecap="round" stroke-linejoin="round"/>
<path d="M70.7309 43.1367H65.0854V55.0833H70.7309V43.1367Z" fill="white" stroke="#014D40" stroke-linecap="round" stroke-linejoin="round"/>
<path d="M66.383 49.5298L65.6367 50.1433" stroke="#014D40" stroke-linecap="round" stroke-linejoin="round"/>
<path d="M70.6336 46.1072L67.3242 48.7871" stroke="#014D40" stroke-linecap="round" stroke-linejoin="round"/>
<path d="M73.6833 49.5298L72.937 50.1433" stroke="#014D40" stroke-linecap="round" stroke-linejoin="round"/>
<path d="M77.9337 46.1072L74.5918 48.7871" stroke="#014D40" stroke-linecap="round" stroke-linejoin="round"/>
<path d="M119.464 36.1626H104.571V56.1489H119.464V36.1626Z" fill="#014D40" stroke="#014D40" stroke-linecap="round" stroke-linejoin="round"/>
<path d="M113.98 37.2603H112.293V41.9097H113.98V37.2603Z" fill="white" stroke="#014D40" stroke-linecap="round" stroke-linejoin="round"/>
<path d="M111.741 37.2603H110.054V41.9097H111.741V37.2603Z" fill="white" stroke="#014D40" stroke-linecap="round" stroke-linejoin="round"/>
<path d="M118.523 37.2603H116.771V41.9097H118.523V37.2603Z" fill="white" stroke="#014D40" stroke-linecap="round" stroke-linejoin="round"/>
<path d="M109.535 37.2603H107.848V41.9097H109.535V37.2603Z" fill="white" stroke="#014D40" stroke-linecap="round" stroke-linejoin="round"/>
<path d="M116.219 37.2603H114.532V41.9097H116.219V37.2603Z" fill="white" stroke="#014D40" stroke-linecap="round" stroke-linejoin="round"/>
<path d="M118.522 43.1367H112.877V55.0833H118.522V43.1367Z" fill="white" stroke="#014D40" stroke-linecap="round" stroke-linejoin="round"/>
<path d="M107.264 37.2603H105.512V41.9097H107.264V37.2603Z" fill="white" stroke="#014D40" stroke-linecap="round" stroke-linejoin="round"/>
<path d="M111.158 43.1367H105.512V55.0833H111.158V43.1367Z" fill="white" stroke="#014D40" stroke-linecap="round" stroke-linejoin="round"/>
<path d="M107.199 49.5298L106.453 50.1433" stroke="#014D40" stroke-linecap="round" stroke-linejoin="round"/>
<path d="M111.449 46.1072L108.107 48.7871" stroke="#014D40" stroke-linecap="round" stroke-linejoin="round"/>
<path d="M114.499 49.5298L113.721 50.1433" stroke="#014D40" stroke-linecap="round" stroke-linejoin="round"/>
<path d="M118.717 46.1072L115.408 48.7871" stroke="#014D40" stroke-linecap="round" stroke-linejoin="round"/>
<path d="M128.062 60.3787H17.229V136.482H128.062V60.3787Z" fill="#014D40" stroke="#014D40" stroke-linecap="round" stroke-linejoin="round"/>
<path d="M83.4819 93.5383H59.7969V136.481H83.4819V93.5383Z" fill="#65D6AD" stroke="#014D40" stroke-linecap="round" stroke-linejoin="round"/>
<path d="M61.4189 131.8H81.5674V129.055H61.4189H81.5674V126.311H61.4189H81.5674V123.566H61.4189H81.5674V120.822H61.4189H81.5674V120.37H61.354V134.092H81.5674V131.8H61.4189Z" fill="#C6F7E2" stroke="#014D40" stroke-width="0.7718" stroke-linecap="round" stroke-linejoin="round"/>
<path d="M61.4189 115.333H81.5674V112.588H61.4189H81.5674V109.844H61.4189H81.5674V107.099H61.4189H81.5674V104.355H61.4189H81.5674V101.61H61.4189H81.5674V98.866H61.4189H81.5674V96.1215H61.4189H81.5674V95.6372H61.354V117.981H81.5674V115.333H61.4189Z" fill="#C6F7E2" stroke="#014D40" stroke-width="0.7718" stroke-linecap="round" stroke-linejoin="round"/>
<path d="M82.8004 112.75H82.0542V120.596H82.8004V112.75Z" fill="#014D40" stroke="#014D40" stroke-linecap="round" stroke-linejoin="round"/>
<path d="M68.4922 109.23L71.3474 105.646L74.4297 109.327" stroke="#014D40" stroke-linecap="round" stroke-linejoin="round"/>
<path d="M75.8246 108.681H66.6426V113.46H75.8246V108.681Z" fill="white" stroke="#014D40" stroke-linecap="round" stroke-linejoin="round"/>
<path d="M68.4598 112.169C68.3625 112.298 68.2003 112.362 68.038 112.362C67.8758 112.362 67.7136 112.298 67.6162 112.169C67.5189 112.007 67.454 111.814 67.4865 111.62V110.49C67.4865 110.102 67.5838 109.844 67.7785 109.779C67.8758 109.747 67.9731 109.715 68.0705 109.715C68.4274 109.715 68.622 109.941 68.622 110.393V110.748H68.2327V110.425C68.2327 110.328 68.2327 110.231 68.2003 110.135C68.1678 110.07 68.1354 110.038 68.0705 110.038C68.0056 110.038 67.9407 110.07 67.9407 110.135C67.9083 110.231 67.9083 110.328 67.9083 110.425V111.652C67.9083 111.749 67.9083 111.846 67.9407 111.943C67.9731 112.007 68.0056 112.04 68.0705 112.04C68.1354 112.04 68.2003 112.007 68.2003 111.943C68.2327 111.846 68.2327 111.749 68.2327 111.652V111.297H68.622V111.652C68.622 111.814 68.5572 112.007 68.4598 112.169Z" fill="#014D40"/>
<path d="M68.9463 112.33V109.715H69.3356V111.975H69.8548V112.298L68.9463 112.33Z" fill="#014D40"/>
<path d="M71.055 112.169C70.9577 112.298 70.7954 112.362 70.6008 112.362C70.4385 112.362 70.2763 112.298 70.1465 112.169C70.0492 112.007 69.9843 111.814 70.0167 111.588V110.425C70.0167 109.941 70.2114 109.715 70.6008 109.715C70.763 109.715 70.9252 109.779 71.0225 109.909C71.1199 110.07 71.1848 110.264 71.1523 110.457V111.652C71.2172 111.814 71.1523 112.007 71.055 112.169ZM70.471 111.943C70.5034 112.007 70.5359 112.04 70.6008 112.04C70.6656 112.04 70.7305 112.007 70.7305 111.943C70.763 111.846 70.763 111.717 70.763 111.62V110.393C70.763 110.296 70.763 110.199 70.7305 110.135C70.6981 110.07 70.6656 110.038 70.6008 110.038C70.5359 110.038 70.471 110.07 70.471 110.135C70.4385 110.231 70.4385 110.296 70.4385 110.393V111.62C70.4385 111.717 70.4385 111.814 70.471 111.943Z" fill="#014D40"/>
<path d="M71.4771 111.587V111.361H71.8664V111.62C71.8664 111.717 71.8664 111.813 71.8988 111.943C71.9313 112.007 71.9637 112.039 72.0286 112.039C72.0935 112.039 72.126 112.007 72.1584 111.975C72.1908 111.91 72.1908 111.813 72.1908 111.749C72.1908 111.652 72.1584 111.555 72.126 111.458C72.0611 111.361 72.0286 111.265 71.9313 111.2L71.7366 111.006C71.6393 110.909 71.5744 110.813 71.5419 110.716C71.477 110.619 71.4771 110.49 71.4771 110.361C71.4771 110.199 71.5095 110.038 71.6068 109.876C71.7042 109.747 71.8664 109.715 72.0286 109.715C72.1908 109.682 72.3531 109.779 72.4504 109.908C72.5477 110.07 72.5802 110.264 72.5477 110.425V110.587H72.1908V110.393C72.1908 110.296 72.1908 110.199 72.1584 110.135C72.126 110.07 72.0935 110.038 72.0286 110.038C71.9637 110.038 71.9313 110.07 71.8988 110.102C71.8664 110.167 71.8664 110.231 71.8664 110.296C71.8664 110.361 71.8664 110.425 71.8988 110.49C71.9313 110.554 71.9962 110.619 72.0611 110.683L72.2882 110.909C72.3855 111.006 72.4829 111.135 72.5477 111.265C72.6126 111.394 72.6451 111.523 72.6126 111.652C72.6126 111.846 72.5802 112.039 72.4829 112.201C72.3855 112.33 72.2233 112.395 72.0286 112.362C71.8664 112.395 71.7042 112.298 71.6068 112.169C71.5095 112.007 71.4771 111.781 71.4771 111.587Z" fill="#014D40"/>
<path d="M72.8721 112.33V109.715H73.7481V110.07H73.2614V110.813H73.7156V111.136H73.2614V111.975H73.7481V112.33H72.8721Z" fill="#014D40"/>
<path d="M74.105 112.33V109.715H74.689C74.8512 109.715 75.0134 109.747 75.1108 109.876C75.2081 110.038 75.2406 110.199 75.2406 110.361V111.523C75.2406 111.717 75.2081 111.91 75.1108 112.104C75.0134 112.233 74.8512 112.298 74.689 112.298H74.105V112.33ZM74.4943 112.007H74.6241C74.689 112.007 74.7539 111.975 74.7863 111.943C74.8188 111.878 74.8512 111.781 74.8512 111.684V110.393C74.8512 110.296 74.8512 110.199 74.8188 110.102C74.7863 110.038 74.7214 110.005 74.6566 110.005H74.5268L74.4943 112.007Z" fill="#014D40"/>
<path d="M125.855 93.603H90.0356V136.482H125.855V93.603Z" fill="#C6F7E2" stroke="#014D40" stroke-linecap="round" stroke-linejoin="round"/>
<path d="M90.1328 134.609H125.855" stroke="#014D40" stroke-linecap="round" stroke-linejoin="round"/>
<path d="M90.1328 131.864H125.855" stroke="#014D40" stroke-linecap="round" stroke-linejoin="round"/>
<path d="M90.1328 129.12H125.855" stroke="#014D40" stroke-linecap="round" stroke-linejoin="round"/>
<path d="M90.1328 126.375H125.855" stroke="#014D40" stroke-linecap="round" stroke-linejoin="round"/>
<path d="M90.1328 123.631H125.855" stroke="#014D40" stroke-linecap="round" stroke-linejoin="round"/>
<path d="M90.1328 120.886H125.855" stroke="#014D40" stroke-linecap="round" stroke-linejoin="round"/>
<path d="M90.1328 118.142H125.855" stroke="#014D40" stroke-linecap="round" stroke-linejoin="round"/>
<path d="M90.1328 115.397H125.855" stroke="#014D40" stroke-linecap="round" stroke-linejoin="round"/>
<path d="M90.1328 112.653H125.855" stroke="#014D40" stroke-linecap="round" stroke-linejoin="round"/>
<path d="M90.1328 109.908H125.855" stroke="#014D40" stroke-linecap="round" stroke-linejoin="round"/>
<path d="M90.1328 107.164H125.855" stroke="#014D40" stroke-linecap="round" stroke-linejoin="round"/>
<path d="M90.1328 104.419H125.855" stroke="#014D40" stroke-linecap="round" stroke-linejoin="round"/>
<path d="M90.1328 101.675H125.855" stroke="#014D40" stroke-linecap="round" stroke-linejoin="round"/>
<path d="M90.1328 98.9307H125.855" stroke="#014D40" stroke-linecap="round" stroke-linejoin="round"/>
<path d="M90.1328 96.186H125.855" stroke="#014D40" stroke-linecap="round" stroke-linejoin="round"/>
<path d="M53.7622 93.603H19.8569V136.482H53.7622V93.603Z" fill="#C6F7E2" stroke="#014D40" stroke-linecap="round" stroke-linejoin="round"/>
<path d="M19.9863 134.609H53.7942" stroke="#014D40" stroke-linecap="round" stroke-linejoin="round"/>
<path d="M19.9863 131.864H53.7942" stroke="#014D40" stroke-linecap="round" stroke-linejoin="round"/>
<path d="M19.9863 129.12H53.7942" stroke="#014D40" stroke-linecap="round" stroke-linejoin="round"/>
<path d="M19.9863 126.375H53.7942" stroke="#014D40" stroke-linecap="round" stroke-linejoin="round"/>
<path d="M19.9863 123.631H53.7942" stroke="#014D40" stroke-linecap="round" stroke-linejoin="round"/>
<path d="M19.9863 120.886H53.7942" stroke="#014D40" stroke-linecap="round" stroke-linejoin="round"/>
<path d="M19.9863 118.142H53.7942" stroke="#014D40" stroke-linecap="round" stroke-linejoin="round"/>
<path d="M19.9863 115.397H53.7942" stroke="#014D40" stroke-linecap="round" stroke-linejoin="round"/>
<path d="M19.9863 112.653H53.7942" stroke="#014D40" stroke-linecap="round" stroke-linejoin="round"/>
<path d="M19.9863 109.908H53.7942" stroke="#014D40" stroke-linecap="round" stroke-linejoin="round"/>
<path d="M19.9863 107.164H53.7942" stroke="#014D40" stroke-linecap="round" stroke-linejoin="round"/>
<path d="M19.9863 104.419H53.7942" stroke="#014D40" stroke-linecap="round" stroke-linejoin="round"/>
<path d="M19.9863 101.675H53.7942" stroke="#014D40" stroke-linecap="round" stroke-linejoin="round"/>
<path d="M19.9863 98.9307H53.7942" stroke="#014D40" stroke-linecap="round" stroke-linejoin="round"/>
<path d="M19.9863 96.186H53.7942" stroke="#014D40" stroke-linecap="round" stroke-linejoin="round"/>
<path opacity="0.3" d="M128.029 85.4663H17.4556V100.061H128.029V85.4663Z" fill="black"/>
<path d="M127.185 80.5264H18.1694V95.1206H127.185V80.5264Z" fill="white" stroke="#014D40" stroke-linecap="round" stroke-linejoin="round"/>
<path d="M29.0061 80.5264H23.9771V95.1206H29.0061V80.5264Z" fill="#65D6AD" stroke="#014D40" stroke-linecap="round" stroke-linejoin="round"/>
<path d="M39.6481 80.5264H34.6191V95.1206H39.6481V80.5264Z" fill="#65D6AD" stroke="#014D40" stroke-linecap="round" stroke-linejoin="round"/>
<path d="M50.2902 80.5264H45.2612V95.1206H50.2902V80.5264Z" fill="#65D6AD" stroke="#014D40" stroke-linecap="round" stroke-linejoin="round"/>
<path d="M60.4133 80.5264H55.3843V95.1206H60.4133V80.5264Z" fill="#65D6AD" stroke="#014D40" stroke-linecap="round" stroke-linejoin="round"/>
<path d="M70.5359 80.5264H65.5068V95.1206H70.5359V80.5264Z" fill="#65D6AD" stroke="#014D40" stroke-linecap="round" stroke-linejoin="round"/>
<path d="M80.6594 80.5264H75.6304V95.1206H80.6594V80.5264Z" fill="#65D6AD" stroke="#014D40" stroke-linecap="round" stroke-linejoin="round"/>
<path d="M90.7819 80.5264H85.7529V95.1206H90.7819V80.5264Z" fill="#65D6AD" stroke="#014D40" stroke-linecap="round" stroke-linejoin="round"/>
<path d="M100.905 80.5264H95.876V95.1206H100.905V80.5264Z" fill="#65D6AD" stroke="#014D40" stroke-linecap="round" stroke-linejoin="round"/>
<path d="M111.028 80.5264H105.999V95.1206H111.028V80.5264Z" fill="#65D6AD" stroke="#014D40" stroke-linecap="round" stroke-linejoin="round"/>
<path d="M121.151 80.5264H116.122V95.1206H121.151V80.5264Z" fill="#65D6AD" stroke="#014D40" stroke-linecap="round" stroke-linejoin="round"/>
<path d="M24.7236 60.3787L22.8418 76.8455L29.9797 60.3787H24.7236Z" fill="#65D6AD" stroke="#014D40" stroke-linecap="round" stroke-linejoin="round"/>
<path d="M36.8582 60.3787L22.0308 80.3972L44.5802 60.3787H36.8582Z" fill="#65D6AD" stroke="#014D40" stroke-linecap="round" stroke-linejoin="round"/>
<path d="M84.3255 60.3787L28.7793 78.4277L120.242 60.3787H84.3255Z" fill="#65D6AD" stroke="#014D40" stroke-linecap="round" stroke-linejoin="round"/>
<path d="M50.8093 60.3787L26.2158 78.8151L65.2798 60.3787H50.8093Z" fill="#65D6AD" stroke="#014D40" stroke-linecap="round" stroke-linejoin="round"/>
<path d="M48.8624 104.452H25.3071V121.08H48.8624V104.452Z" fill="#65D6AD" stroke="#014D40" stroke-width="0.8956" stroke-linecap="round" stroke-linejoin="round"/>
<path d="M119.755 104.452H96.1997V121.08H119.755V104.452Z" fill="#65D6AD" stroke="#014D40" stroke-width="0.8956" stroke-linecap="round" stroke-linejoin="round"/>
<path d="M115.959 84.8529C115.959 84.8529 126.114 85.8538 131.273 92.1177C131.273 92.1177 136.724 84.8529 146.49 85.0143C153.466 76.6517 152.298 64.2854 143.894 57.3435C135.491 50.4015 123.065 51.5639 116.089 59.9265C110.054 67.159 110.022 77.5881 115.959 84.8529Z" fill="#65D6AD"/>
<path opacity="0.5" d="M115.959 84.8529C115.959 84.8529 126.114 85.8538 131.273 92.1177C131.273 92.1177 136.724 84.8529 146.49 85.0143C153.466 76.6517 152.298 64.2854 143.894 57.3435C135.491 50.4015 123.065 51.5639 116.089 59.9265C110.054 67.159 110.022 77.5881 115.959 84.8529Z" fill="white"/>
<path d="M130.916 54.2114L130.592 134.576H132.311L130.916 54.2114Z" fill="#27AB83"/>
<path d="M131.435 90.2128C131.435 90.2128 134.874 84.078 141.039 82.2053C141.039 82.2053 134.517 83.7552 131.273 89.0181L131.435 90.2128Z" fill="#27AB83"/>
<path d="M131.176 73.1324C131.176 73.1324 134.875 66.6425 141.039 64.7698C141.039 64.7698 134.453 66.5456 131.208 71.8408L131.176 73.1324Z" fill="#27AB83"/>
<path d="M131.273 81.721C131.273 81.721 134.842 75.3603 141.039 73.4875C141.039 73.4875 134.517 75.0374 131.273 80.3003V81.721Z" fill="#27AB83"/>
<path d="M130.916 77.2328C130.916 77.2328 127.607 71.0981 121.669 69.2253C121.669 69.2253 127.964 70.7752 131.111 76.0381L130.916 77.2328Z" fill="#27AB83"/>
<path d="M130.916 85.757C130.916 85.757 127.607 79.6222 121.669 77.7495C121.669 77.7495 127.964 79.2993 131.111 84.5623L130.916 85.757Z" fill="#27AB83"/>
<path d="M137.827 133.285H124.2V136.385H137.827V133.285Z" fill="white" stroke="#014D40" stroke-linecap="round" stroke-linejoin="round"/>
<path d="M139.125 136.417H6.81348V138.839H139.125V136.417Z" fill="white" stroke="#014D40" stroke-linecap="round" stroke-linejoin="round"/>
<path d="M0 138.839H146.977" stroke="#014D40" stroke-miterlimit="10"/>
<path d="M30.8877 109.65V107.584C30.8877 107.003 31.1797 106.647 31.7637 106.647C32.3477 106.647 32.6397 107.003 32.6397 107.584V108.004H32.0557V107.552C32.0557 107.293 31.9259 107.196 31.7637 107.196C31.6015 107.196 31.4717 107.293 31.4717 107.552V109.683C31.4717 109.941 31.6015 110.038 31.7637 110.038C31.9259 110.038 32.0557 109.941 32.0557 109.683V109.101H32.6397V109.65C32.6397 110.231 32.3477 110.587 31.7637 110.587C31.1797 110.587 30.8877 110.231 30.8877 109.65Z" fill="#014D40"/>
<path d="M33.0293 106.712H33.9378C34.5542 106.712 34.8462 107.003 34.8462 107.584V107.81C34.8462 108.197 34.7164 108.456 34.4569 108.553C34.7489 108.649 34.8462 108.94 34.8462 109.36V110.038C34.8462 110.232 34.8462 110.361 34.9111 110.49H34.2947C34.2622 110.393 34.2298 110.328 34.2298 110.006V109.295C34.2298 108.94 34.1324 108.811 33.8404 108.811H33.6458V110.458H33.0293V106.712ZM33.8404 108.327C34.0675 108.327 34.1973 108.23 34.1973 107.907V107.616C34.1973 107.358 34.1 107.229 33.9053 107.229H33.6458V108.327H33.8404Z" fill="#014D40"/>
<path d="M35.2354 106.712H36.8901V107.261H35.8518V108.262H36.6954V108.811H35.8518V109.973H36.8901V110.522H35.2354V106.712Z" fill="#014D40"/>
<path d="M37.7014 106.712H38.5125L39.129 110.554H38.5125L38.4152 109.78H37.7339L37.6365 110.522H37.085L37.7014 106.712ZM38.3503 109.263L38.0908 107.358L37.8312 109.263H38.3503Z" fill="#014D40"/>
<path d="M39.6477 107.229H39.0312V106.68H40.9131V107.229H40.2966V110.522H39.6802V107.229H39.6477Z" fill="#014D40"/>
<path d="M41.1729 106.712H42.8276V107.261H41.7893V108.262H42.6329V108.811H41.7893V109.973H42.8276V110.522H41.1729V106.712Z" fill="#014D40"/>
<path d="M29.0386 116.689V116.334H29.947V116.753C29.947 117.173 30.1417 117.335 30.4337 117.335C30.7257 117.335 30.9204 117.173 30.9204 116.721C30.9204 116.205 30.7257 115.914 30.1093 115.365C29.2981 114.655 29.0386 114.17 29.0386 113.492C29.0386 112.556 29.5253 111.975 30.4662 111.975C31.4071 111.975 31.8613 112.524 31.8613 113.492V113.751H30.9528V113.428C30.9528 113.008 30.7906 112.847 30.4662 112.847C30.1417 112.847 29.9795 113.008 29.9795 113.428C29.9795 113.88 30.1742 114.203 30.7906 114.719C31.6017 115.43 31.8289 115.914 31.8289 116.657C31.8289 117.625 31.3097 118.206 30.4013 118.206C29.4928 118.206 29.0386 117.658 29.0386 116.689Z" fill="#014D40"/>
<path d="M33.1591 112.944H32.1533V112.072H35.1058V112.944H34.1V118.11H33.1591V112.944Z" fill="#014D40"/>
<path d="M35.4629 116.689V113.525C35.4629 112.556 35.982 112.007 36.9229 112.007C37.8638 112.007 38.383 112.556 38.383 113.525V116.689C38.383 117.657 37.8638 118.206 36.9229 118.206C35.982 118.206 35.4629 117.657 35.4629 116.689ZM37.4096 116.753V113.46C37.4096 113.04 37.2149 112.879 36.9229 112.879C36.6309 112.879 36.4362 113.04 36.4362 113.46V116.753C36.4362 117.173 36.6309 117.335 36.9229 117.335C37.2149 117.335 37.4096 117.205 37.4096 116.753Z" fill="#014D40"/>
<path d="M38.999 112.104H40.4266C41.4 112.104 41.8542 112.556 41.8542 113.492V113.848C41.8542 114.461 41.6595 114.881 41.2378 115.042V115.074C41.7244 115.236 41.8867 115.656 41.8867 116.366V117.432C41.8867 117.722 41.8867 117.948 41.984 118.174H41.0106C40.9457 118.013 40.9133 117.916 40.9133 117.432V116.334C40.9133 115.785 40.7511 115.591 40.3293 115.591H40.0048V118.174H39.0639V112.104H38.999ZM40.3293 114.687C40.6862 114.687 40.9133 114.526 40.9133 114.041V113.589C40.9133 113.169 40.7511 112.976 40.4266 112.976H40.0048V114.687H40.3293Z" fill="#014D40"/>
<path d="M42.5034 112.104H45.099V112.976H43.4768V114.558H44.7746V115.43H43.4768V117.27H45.1315V118.142H42.5359V112.104H42.5034Z" fill="#014D40"/>
<path d="M101.781 109.65V107.584C101.781 107.003 102.073 106.647 102.657 106.647C103.241 106.647 103.533 107.003 103.533 107.584V108.004H102.949V107.552C102.949 107.293 102.819 107.196 102.657 107.196C102.462 107.196 102.365 107.293 102.365 107.552V109.683C102.365 109.941 102.495 110.038 102.657 110.038C102.851 110.038 102.949 109.941 102.949 109.683V109.101H103.533V109.65C103.533 110.231 103.241 110.587 102.657 110.587C102.073 110.587 101.781 110.231 101.781 109.65Z" fill="#014D40"/>
<path d="M103.922 106.712H104.83C105.447 106.712 105.739 107.003 105.739 107.584V107.81C105.739 108.197 105.609 108.456 105.349 108.553C105.641 108.649 105.739 108.94 105.739 109.36V110.038C105.739 110.232 105.739 110.361 105.804 110.49H105.187C105.155 110.393 105.122 110.328 105.122 110.006V109.295C105.122 108.94 105.025 108.811 104.733 108.811H104.538V110.458H103.922V106.712ZM104.733 108.327C104.96 108.327 105.09 108.23 105.09 107.907V107.616C105.09 107.358 104.993 107.229 104.798 107.229H104.538V108.327H104.733Z" fill="#014D40"/>
<path d="M106.128 106.712H107.783V107.261H106.745V108.262H107.588V108.811H106.745V109.973H107.783V110.522H106.128V106.712Z" fill="#014D40"/>
<path d="M108.594 106.712H109.405L110.022 110.554H109.405L109.308 109.78H108.626L108.529 110.522H107.978L108.594 106.712ZM109.243 109.263L108.983 107.358L108.724 109.263H109.243Z" fill="#014D40"/>
<path d="M110.541 107.229H109.924V106.68H111.806V107.229H111.19V110.522H110.573V107.229H110.541Z" fill="#014D40"/>
<path d="M112.066 106.712H113.721V107.261H112.682V108.262H113.526V108.811H112.682V109.973H113.721V110.522H112.066V106.712Z" fill="#014D40"/>
<path d="M99.9312 116.689V116.334H100.84V116.753C100.84 117.173 101.034 117.335 101.326 117.335C101.618 117.335 101.813 117.173 101.813 116.721C101.813 116.205 101.618 115.914 101.002 115.365C100.191 114.655 99.9312 114.17 99.9312 113.492C99.9312 112.556 100.418 111.975 101.359 111.975C102.3 111.975 102.754 112.524 102.754 113.492V113.751H101.845V113.428C101.845 113.008 101.683 112.847 101.359 112.847C101.034 112.847 100.872 113.008 100.872 113.428C100.872 113.88 101.067 114.203 101.683 114.719C102.494 115.43 102.721 115.914 102.721 116.657C102.721 117.625 102.202 118.206 101.294 118.206C100.385 118.206 99.9312 117.658 99.9312 116.689Z" fill="#014D40"/>
<path d="M104.052 112.944H103.046V112.072H105.998V112.944H104.993V118.11H104.052V112.944Z" fill="#014D40"/>
<path d="M106.355 116.689V113.525C106.355 112.556 106.875 112.007 107.816 112.007C108.756 112.007 109.276 112.556 109.276 113.525V116.689C109.276 117.657 108.756 118.206 107.816 118.206C106.875 118.206 106.355 117.657 106.355 116.689ZM108.302 116.753V113.46C108.302 113.04 108.108 112.879 107.816 112.879C107.523 112.879 107.329 113.04 107.329 113.46V116.753C107.329 117.173 107.523 117.335 107.816 117.335C108.108 117.335 108.302 117.205 108.302 116.753Z" fill="#014D40"/>
<path d="M109.892 112.104H111.319C112.293 112.104 112.747 112.556 112.747 113.492V113.848C112.747 114.461 112.552 114.881 112.13 115.042V115.074C112.617 115.236 112.779 115.656 112.779 116.366V117.432C112.779 117.722 112.779 117.948 112.877 118.174H111.903C111.838 118.013 111.806 117.916 111.806 117.432V116.334C111.806 115.785 111.644 115.591 111.222 115.591H110.897V118.174H109.956V112.104H109.892ZM111.222 114.687C111.579 114.687 111.806 114.526 111.806 114.041V113.589C111.806 113.169 111.644 112.976 111.319 112.976H110.897V114.687H111.222Z" fill="#014D40"/>
<path d="M113.396 112.104H115.992V112.976H114.337V114.558H115.635V115.43H114.337V117.27H115.992V118.142H113.396V112.104Z" fill="#014D40"/>
</g>
<defs>
<clipPath id="clip0">
<rect width="151" height="139" fill="white"/>
</clipPath>
</defs>
</svg>
