<svg width="14" height="16" viewBox="0 0 14 16" fill="none" xmlns="http://www.w3.org/2000/svg">
<path d="M8.3333 7.33331V11.3333M1 3.99991H2.3333H1ZM2.3333 3.99991H13H2.3333ZM2.3333 3.99991V13.3333C2.3333 13.6869 2.4738 14.026 2.7239 14.2761C2.9739 14.5261 3.313 14.6666 3.6667 14.6666H10.3333C10.687 14.6666 11.0261 14.5261 11.2761 14.2761C11.5262 14.026 11.6667 13.6869 11.6667 13.3333V3.99991H2.3333ZM4.3333 3.99991V2.66661C4.3333 2.31301 4.4738 1.97381 4.7239 1.72381C4.9739 1.47371 5.313 1.33331 5.6667 1.33331H8.3333C8.687 1.33331 9.0261 1.47371 9.2761 1.72381C9.5262 1.97381 9.6667 2.31301 9.6667 2.66661V3.99991H4.3333ZM5.6667 7.33331V11.3333V7.33331Z" stroke="#C1C1C1" stroke-width="1.5" stroke-linecap="round" stroke-linejoin="round"/>
</svg>
