<svg width="374" height="229" viewBox="0 0 374 229" fill="none" xmlns="http://www.w3.org/2000/svg">
<path d="M360.255 229H13.6865C6.109 229 0 222.893 0 215.319V13.6813C0 6.10667 6.109 0 13.6865 0H360.255C367.832 0 373.941 6.10667 373.941 13.6813V215.26C374 222.893 367.832 229 360.255 229Z" fill="#014D40"/>
<g clip-path="url(#clip0)">
<path d="M63.3806 132.115H22.2036C19.5015 132.115 17.3281 129.943 17.3281 127.242V101.993C17.3281 99.2921 19.5015 97.1195 22.2036 97.1195H63.3806C66.0826 97.1195 68.256 99.2921 68.256 101.993V127.242C68.256 129.943 66.0826 132.115 63.3806 132.115Z" fill="#0C6B58"/>
<path d="M63.3806 132.115H22.2036C19.5015 132.115 17.3281 129.943 17.3281 127.242V101.993C17.3281 99.2921 19.5015 97.1195 22.2036 97.1195H63.3806C66.0826 97.1195 68.256 99.2921 68.256 101.993V127.242C68.256 129.943 66.0826 132.115 63.3806 132.115Z" stroke="#014D40" stroke-miterlimit="10"/>
<path d="M49.2829 114.617H68.256V127.242C68.256 129.943 66.0826 132.115 63.3806 132.115H22.2036C19.5015 132.115 17.3281 129.943 17.3281 127.242V123.66H32.6594C34.6565 123.66 36.3013 122.016 36.3013 120.02V109.215C36.3013 107.219 34.6565 105.575 32.6594 105.575H17.3281V102.052C17.3281 99.3508 19.5015 97.1782 22.2036 97.1782H63.3806C66.0826 97.1782 68.256 99.3508 68.256 102.052V105.634H52.8661C50.8689 105.634 49.2242 107.278 49.2242 109.274V114.617H49.2829Z" stroke="#014D40" stroke-miterlimit="10"/>
<path d="M49.2828 120.078C49.2828 122.075 50.9275 123.719 52.9247 123.719H54.3345V132.115H31.2495V123.719H32.6593C34.6565 123.719 36.3012 122.075 36.3012 120.078V109.215C36.3012 107.219 34.6565 105.575 32.6593 105.575H31.2495V97.1782H54.2757V105.634H52.866C50.8688 105.634 49.2241 107.278 49.2241 109.274V120.078H49.2828Z" stroke="#014D40" stroke-miterlimit="10"/>
<path d="M36.3013 114.617V120.019C36.3013 122.016 34.6565 123.66 32.6594 123.66H17.3281V114.617H36.3013Z" stroke="#014D40" stroke-miterlimit="10"/>
<path d="M36.3013 109.215V114.617H17.3281V105.634H32.6594C34.7153 105.634 36.3013 107.219 36.3013 109.215Z" stroke="#014D40" stroke-miterlimit="10"/>
<path d="M68.2559 105.634V114.676H49.2827V109.215C49.2827 107.219 50.9274 105.575 52.9246 105.575H68.2559V105.634Z" stroke="#014D40" stroke-miterlimit="10"/>
<path d="M68.256 114.617V123.66H52.866C50.8689 123.66 49.2241 122.016 49.2241 120.019V114.617H68.256Z" stroke="#014D40" stroke-miterlimit="10"/>
<path d="M49.2829 110.155H36.3013V119.08H49.2829V110.155Z" stroke="#014D40" stroke-miterlimit="10"/>
</g>
<path d="M21.34 210.14C24.028 210.14 25.526 208.306 25.526 205.03V204.582C25.526 201.698 24.196 199.836 21.438 199.836C19.044 199.836 17.56 201.236 17.56 203.308C17.56 205.338 18.974 206.542 20.906 206.542C22.11 206.542 22.838 206.052 23.3 205.324C23.258 207.368 22.6 208.418 21.27 208.418C20.318 208.418 19.912 207.984 19.772 207.298H17.658C17.882 209.104 19.17 210.14 21.34 210.14ZM21.41 205.03C20.402 205.03 19.758 204.302 19.758 203.252C19.758 202.202 20.416 201.474 21.41 201.474C22.432 201.474 23.118 202.188 23.118 203.35C23.118 204.33 22.432 205.03 21.41 205.03ZM30.5171 210.154C32.7431 210.154 34.4231 209.076 34.4231 207.116C34.4231 205.926 33.7651 205.058 32.5891 204.652C33.4711 204.26 34.0451 203.574 34.0451 202.566C34.0451 200.858 32.4491 199.85 30.5311 199.85C28.6551 199.85 26.9891 200.844 26.9891 202.58C26.9891 203.588 27.5351 204.288 28.4451 204.666C27.2971 205.072 26.5971 205.954 26.5971 207.172C26.5971 209.132 28.3051 210.154 30.5171 210.154ZM30.5171 208.502C29.5931 208.502 28.8511 207.956 28.8511 206.962C28.8511 205.968 29.6071 205.422 30.5311 205.422C31.4691 205.422 32.1831 205.968 32.1831 206.948C32.1831 207.942 31.4691 208.502 30.5171 208.502ZM30.5451 204.036C29.7611 204.036 29.1031 203.546 29.1031 202.734C29.1031 201.922 29.7331 201.432 30.5311 201.432C31.3291 201.432 31.9451 201.95 31.9451 202.72C31.9451 203.546 31.3571 204.036 30.5451 204.036ZM39.1818 210.14C41.8698 210.14 43.3678 208.306 43.3678 205.03V204.582C43.3678 201.698 42.0378 199.836 39.2798 199.836C36.8858 199.836 35.4018 201.236 35.4018 203.308C35.4018 205.338 36.8158 206.542 38.7478 206.542C39.9518 206.542 40.6798 206.052 41.1418 205.324C41.0998 207.368 40.4418 208.418 39.1118 208.418C38.1598 208.418 37.7538 207.984 37.6138 207.298H35.4998C35.7238 209.104 37.0118 210.14 39.1818 210.14ZM39.2518 205.03C38.2438 205.03 37.5998 204.302 37.5998 203.252C37.5998 202.202 38.2578 201.474 39.2518 201.474C40.2738 201.474 40.9598 202.188 40.9598 203.35C40.9598 204.33 40.2738 205.03 39.2518 205.03ZM48.2609 210.154C50.6969 210.154 52.1389 208.964 52.1389 207.088C52.1389 205.814 51.3549 204.988 50.1929 204.736C51.1869 204.386 51.8449 203.686 51.8449 202.566C51.8449 200.998 50.5569 199.85 48.3589 199.85C46.0769 199.85 44.7749 201.194 44.6629 203.028H46.6649C46.7769 202.09 47.3649 201.516 48.3169 201.516C49.2409 201.516 49.7029 202.048 49.7029 202.762C49.7029 203.616 49.2269 204.092 48.1769 204.092H47.4489V205.604H48.2329C49.3109 205.604 49.8429 206.094 49.8429 207.046C49.8429 207.942 49.3109 208.488 48.1769 208.488C46.9729 208.488 46.4549 207.788 46.3709 206.822H44.3269C44.4109 208.852 45.7129 210.154 48.2609 210.154ZM60.2091 210.14C62.8971 210.14 64.3951 208.306 64.3951 205.03V204.582C64.3951 201.698 63.0651 199.836 60.3071 199.836C57.9131 199.836 56.4291 201.236 56.4291 203.308C56.4291 205.338 57.8431 206.542 59.7751 206.542C60.9791 206.542 61.7071 206.052 62.1691 205.324C62.1271 207.368 61.4691 208.418 60.1391 208.418C59.1871 208.418 58.7811 207.984 58.6411 207.298H56.5271C56.7511 209.104 58.0391 210.14 60.2091 210.14ZM60.2791 205.03C59.2711 205.03 58.6271 204.302 58.6271 203.252C58.6271 202.202 59.2851 201.474 60.2791 201.474C61.3011 201.474 61.9871 202.188 61.9871 203.35C61.9871 204.33 61.3011 205.03 60.2791 205.03ZM69.3863 210.154C71.6123 210.154 73.2923 209.076 73.2923 207.116C73.2923 205.926 72.6343 205.058 71.4583 204.652C72.3403 204.26 72.9143 203.574 72.9143 202.566C72.9143 200.858 71.3183 199.85 69.4003 199.85C67.5243 199.85 65.8583 200.844 65.8583 202.58C65.8583 203.588 66.4043 204.288 67.3143 204.666C66.1663 205.072 65.4663 205.954 65.4663 207.172C65.4663 209.132 67.1743 210.154 69.3863 210.154ZM69.3863 208.502C68.4623 208.502 67.7203 207.956 67.7203 206.962C67.7203 205.968 68.4763 205.422 69.4003 205.422C70.3383 205.422 71.0523 205.968 71.0523 206.948C71.0523 207.942 70.3383 208.502 69.3863 208.502ZM69.4143 204.036C68.6303 204.036 67.9723 203.546 67.9723 202.734C67.9723 201.922 68.6022 201.432 69.4003 201.432C70.1983 201.432 70.8143 201.95 70.8143 202.72C70.8143 203.546 70.2263 204.036 69.4143 204.036ZM78.0509 210.14C80.7389 210.14 82.2369 208.306 82.2369 205.03V204.582C82.2369 201.698 80.9069 199.836 78.1489 199.836C75.7549 199.836 74.2709 201.236 74.2709 203.308C74.2709 205.338 75.6849 206.542 77.6169 206.542C78.8209 206.542 79.5489 206.052 80.0109 205.324C79.9689 207.368 79.3109 208.418 77.9809 208.418C77.0289 208.418 76.6229 207.984 76.4829 207.298H74.3689C74.5929 209.104 75.8809 210.14 78.0509 210.14ZM78.1209 205.03C77.1129 205.03 76.4689 204.302 76.4689 203.252C76.4689 202.202 77.1269 201.474 78.1209 201.474C79.1429 201.474 79.8289 202.188 79.8289 203.35C79.8289 204.33 79.1429 205.03 78.1209 205.03ZM87.13 210.154C89.566 210.154 91.008 208.964 91.008 207.088C91.008 205.814 90.224 204.988 89.062 204.736C90.056 204.386 90.714 203.686 90.714 202.566C90.714 200.998 89.426 199.85 87.228 199.85C84.946 199.85 83.644 201.194 83.532 203.028H85.534C85.646 202.09 86.234 201.516 87.186 201.516C88.11 201.516 88.572 202.048 88.572 202.762C88.572 203.616 88.096 204.092 87.046 204.092H86.318V205.604H87.102C88.18 205.604 88.712 206.094 88.712 207.046C88.712 207.942 88.18 208.488 87.046 208.488C85.842 208.488 85.324 207.788 85.24 206.822H83.196C83.28 208.852 84.582 210.154 87.13 210.154ZM99.0783 210.14C101.766 210.14 103.264 208.306 103.264 205.03V204.582C103.264 201.698 101.934 199.836 99.1763 199.836C96.7823 199.836 95.2983 201.236 95.2983 203.308C95.2983 205.338 96.7123 206.542 98.6443 206.542C99.8483 206.542 100.576 206.052 101.038 205.324C100.996 207.368 100.338 208.418 99.0083 208.418C98.0563 208.418 97.6503 207.984 97.5103 207.298H95.3963C95.6203 209.104 96.9083 210.14 99.0783 210.14ZM99.1483 205.03C98.1403 205.03 97.4963 204.302 97.4963 203.252C97.4963 202.202 98.1543 201.474 99.1483 201.474C100.17 201.474 100.856 202.188 100.856 203.35C100.856 204.33 100.17 205.03 99.1483 205.03ZM108.157 210.154C110.593 210.154 112.035 208.964 112.035 207.088C112.035 205.814 111.251 204.988 110.089 204.736C111.083 204.386 111.741 203.686 111.741 202.566C111.741 200.998 110.453 199.85 108.255 199.85C105.973 199.85 104.671 201.194 104.559 203.028H106.561C106.673 202.09 107.261 201.516 108.213 201.516C109.137 201.516 109.599 202.048 109.599 202.762C109.599 203.616 109.123 204.092 108.073 204.092H107.345V205.604H108.129C109.207 205.604 109.739 206.094 109.739 207.046C109.739 207.942 109.207 208.488 108.073 208.488C106.869 208.488 106.351 207.788 106.267 206.822H104.223C104.307 208.852 105.609 210.154 108.157 210.154ZM117.142 210.154C119.368 210.154 121.048 209.076 121.048 207.116C121.048 205.926 120.39 205.058 119.214 204.652C120.096 204.26 120.67 203.574 120.67 202.566C120.67 200.858 119.074 199.85 117.156 199.85C115.28 199.85 113.614 200.844 113.614 202.58C113.614 203.588 114.16 204.288 115.07 204.666C113.922 205.072 113.222 205.954 113.222 207.172C113.222 209.132 114.93 210.154 117.142 210.154ZM117.142 208.502C116.218 208.502 115.476 207.956 115.476 206.962C115.476 205.968 116.232 205.422 117.156 205.422C118.094 205.422 118.808 205.968 118.808 206.948C118.808 207.942 118.094 208.502 117.142 208.502ZM117.17 204.036C116.386 204.036 115.728 203.546 115.728 202.734C115.728 201.922 116.358 201.432 117.156 201.432C117.954 201.432 118.57 201.95 118.57 202.72C118.57 203.546 117.982 204.036 117.17 204.036ZM125.986 210.154C128.422 210.154 129.864 208.964 129.864 207.088C129.864 205.814 129.08 204.988 127.918 204.736C128.912 204.386 129.57 203.686 129.57 202.566C129.57 200.998 128.282 199.85 126.084 199.85C123.802 199.85 122.5 201.194 122.388 203.028H124.39C124.502 202.09 125.09 201.516 126.042 201.516C126.966 201.516 127.428 202.048 127.428 202.762C127.428 203.616 126.952 204.092 125.902 204.092H125.174V205.604H125.958C127.036 205.604 127.568 206.094 127.568 207.046C127.568 207.942 127.036 208.488 125.902 208.488C124.698 208.488 124.18 207.788 124.096 206.822H122.052C122.136 208.852 123.438 210.154 125.986 210.154ZM137.976 210.154C140.412 210.154 141.854 208.964 141.854 207.088C141.854 205.814 141.07 204.988 139.908 204.736C140.902 204.386 141.56 203.686 141.56 202.566C141.56 200.998 140.272 199.85 138.074 199.85C135.792 199.85 134.49 201.194 134.378 203.028H136.38C136.492 202.09 137.08 201.516 138.032 201.516C138.956 201.516 139.418 202.048 139.418 202.762C139.418 203.616 138.942 204.092 137.892 204.092H137.164V205.604H137.948C139.026 205.604 139.558 206.094 139.558 207.046C139.558 207.942 139.026 208.488 137.892 208.488C136.688 208.488 136.17 207.788 136.086 206.822H134.042C134.126 208.852 135.428 210.154 137.976 210.154ZM146.82 210.14C149.508 210.14 151.006 208.306 151.006 205.03V204.582C151.006 201.698 149.676 199.836 146.918 199.836C144.524 199.836 143.04 201.236 143.04 203.308C143.04 205.338 144.454 206.542 146.386 206.542C147.59 206.542 148.318 206.052 148.78 205.324C148.738 207.368 148.08 208.418 146.75 208.418C145.798 208.418 145.392 207.984 145.252 207.298H143.138C143.362 209.104 144.65 210.14 146.82 210.14ZM146.89 205.03C145.882 205.03 145.238 204.302 145.238 203.252C145.238 202.202 145.896 201.474 146.89 201.474C147.912 201.474 148.598 202.188 148.598 203.35C148.598 204.33 147.912 205.03 146.89 205.03ZM155.998 210.154C158.224 210.154 159.904 209.076 159.904 207.116C159.904 205.926 159.246 205.058 158.07 204.652C158.952 204.26 159.526 203.574 159.526 202.566C159.526 200.858 157.93 199.85 156.012 199.85C154.136 199.85 152.47 200.844 152.47 202.58C152.47 203.588 153.016 204.288 153.926 204.666C152.778 205.072 152.078 205.954 152.078 207.172C152.078 209.132 153.786 210.154 155.998 210.154ZM155.998 208.502C155.074 208.502 154.332 207.956 154.332 206.962C154.332 205.968 155.088 205.422 156.012 205.422C156.95 205.422 157.664 205.968 157.664 206.948C157.664 207.942 156.95 208.502 155.998 208.502ZM156.026 204.036C155.242 204.036 154.584 203.546 154.584 202.734C154.584 201.922 155.214 201.432 156.012 201.432C156.81 201.432 157.426 201.95 157.426 202.72C157.426 203.546 156.838 204.036 156.026 204.036ZM164.841 210.154C167.277 210.154 168.719 208.964 168.719 207.088C168.719 205.814 167.935 204.988 166.773 204.736C167.767 204.386 168.425 203.686 168.425 202.566C168.425 200.998 167.137 199.85 164.939 199.85C162.657 199.85 161.355 201.194 161.243 203.028H163.245C163.357 202.09 163.945 201.516 164.897 201.516C165.821 201.516 166.283 202.048 166.283 202.762C166.283 203.616 165.807 204.092 164.757 204.092H164.029V205.604H164.813C165.891 205.604 166.423 206.094 166.423 207.046C166.423 207.942 165.891 208.488 164.757 208.488C163.553 208.488 163.035 207.788 162.951 206.822H160.907C160.991 208.852 162.293 210.154 164.841 210.154Z" fill="#8EEDC7"/>
<defs>
<clipPath id="clip0">
<rect width="51.5153" height="35.5244" fill="white" transform="translate(17.0347 96.8846)"/>
</clipPath>
</defs>
</svg>
