<svg width="52" height="36" viewBox="0 0 52 36" fill="none" xmlns="http://www.w3.org/2000/svg">
<g clip-path="url(#clip0)">
<path d="M46.3459 35.2308H5.16891C2.46685 35.2308 0.293457 33.0582 0.293457 30.3572V5.10845C0.293457 2.40743 2.46685 0.234863 5.16891 0.234863H46.3459C49.048 0.234863 51.2214 2.40743 51.2214 5.10845V30.3572C51.2214 33.0582 49.048 35.2308 46.3459 35.2308Z" fill="white" fill-opacity="0.2"/>
<path d="M46.3459 35.2308H5.16891C2.46685 35.2308 0.293457 33.0582 0.293457 30.3572V5.10845C0.293457 2.40743 2.46685 0.234863 5.16891 0.234863H46.3459C49.048 0.234863 51.2214 2.40743 51.2214 5.10845V30.3572C51.2214 33.0582 49.048 35.2308 46.3459 35.2308Z" stroke="white" stroke-opacity="0.4" stroke-miterlimit="10"/>
<path d="M32.2482 17.7328H51.2214V30.3572C51.2214 33.0582 49.048 35.2308 46.3459 35.2308H5.16891C2.46685 35.2308 0.293457 33.0582 0.293457 30.3572V26.7754H15.6247C17.6219 26.7754 19.2666 25.1313 19.2666 23.1349V12.3308C19.2666 10.3343 17.6219 8.69024 15.6247 8.69024H0.293457V5.16717C0.293457 2.46614 2.46685 0.293579 5.16891 0.293579H46.3459C49.048 0.293579 51.2214 2.46614 51.2214 5.16717V8.74896H35.8314C33.8342 8.74896 32.1895 10.3931 32.1895 12.3895V17.7328H32.2482Z" stroke="white" stroke-opacity="0.4" stroke-miterlimit="10"/>
<path d="M32.2481 23.1936C32.2481 25.19 33.8929 26.8341 35.89 26.8341H37.2998V35.2308H14.2148V26.8341H15.6246C17.6218 26.8341 19.2665 25.19 19.2665 23.1936V12.3308C19.2665 10.3343 17.6218 8.69024 15.6246 8.69024H14.2148V0.293579H37.2411V8.74896H35.8313C33.8341 8.74896 32.1894 10.3931 32.1894 12.3895V23.1936H32.2481Z" stroke="white" stroke-opacity="0.4" stroke-miterlimit="10"/>
<path d="M19.2666 17.7328V23.1348C19.2666 25.1313 17.6219 26.7754 15.6247 26.7754H0.293457V17.7328H19.2666Z" stroke="white" stroke-opacity="0.4" stroke-miterlimit="10"/>
<path d="M19.2666 12.3308V17.7328H0.293457V8.74896H15.6247C17.6806 8.74896 19.2666 10.3343 19.2666 12.3308Z" stroke="white" stroke-opacity="0.4" stroke-miterlimit="10"/>
<path d="M51.2212 8.74896V17.7915H32.248V12.3308C32.248 10.3343 33.8928 8.69025 35.8899 8.69025H51.2212V8.74896Z" stroke="white" stroke-opacity="0.4" stroke-miterlimit="10"/>
<path d="M51.2213 17.7328V26.7754H35.8314C33.8342 26.7754 32.1895 25.1313 32.1895 23.1348V17.7328H51.2213Z" stroke="white" stroke-opacity="0.4" stroke-miterlimit="10"/>
<path d="M32.2482 13.2703H19.2666V22.1954H32.2482V13.2703Z" stroke="white" stroke-opacity="0.4" stroke-miterlimit="10"/>
</g>
<defs>
<clipPath id="clip0">
<rect width="51.5153" height="35.5244" fill="white"/>
</clipPath>
</defs>
</svg>
