<svg width="48" height="30" viewBox="0 0 48 30" fill="none" xmlns="http://www.w3.org/2000/svg">
<path opacity="0.2" d="M15.2785 29.2059C23.1643 29.2059 29.557 22.8918 29.557 15.103C29.557 7.31411 23.1643 1 15.2785 1C7.39269 1 1 7.31411 1 15.103C1 22.8918 7.39269 29.2059 15.2785 29.2059Z" fill="white"/>
<path opacity="0.2" d="M33.1266 29.2059C41.0124 29.2059 47.4051 22.8918 47.4051 15.103C47.4051 7.31411 41.0124 1 33.1266 1C25.2408 1 18.8481 7.31411 18.8481 15.103C18.8481 22.8918 25.2408 29.2059 33.1266 29.2059Z" fill="white"/>
<path opacity="0.38" d="M15.2785 29.2059C23.1643 29.2059 29.557 22.8918 29.557 15.103C29.557 7.31411 23.1643 1 15.2785 1C7.39269 1 1 7.31411 1 15.103C1 22.8918 7.39269 29.2059 15.2785 29.2059Z" stroke="white" stroke-miterlimit="10"/>
<path opacity="0.38" d="M33.1266 29.2059C41.0124 29.2059 47.4051 22.8918 47.4051 15.103C47.4051 7.31411 41.0124 1 33.1266 1C25.2408 1 18.8481 7.31411 18.8481 15.103C18.8481 22.8918 25.2408 29.2059 33.1266 29.2059Z" stroke="white" stroke-miterlimit="10"/>
</svg>
