<svg width="38" height="38" viewBox="0 0 38 38" fill="none" xmlns="http://www.w3.org/2000/svg">
<path d="M37.9443 12.8108L37.9188 12.6681C37.9142 12.6461 37.9118 12.624 37.9072 12.6026L35.2423 6.16639V3H2.71359V6.16647L0.0927734 12.602C0.0869844 12.6276 0.0834961 12.6531 0.0788203 12.678L0.0544766 12.8108C0.0185547 13.041 0 13.277 0 13.5176C0 15.2386 0.960242 16.7345 2.375 17.4993V35.4573H35.625V17.4993C37.0386 16.7345 38 15.2385 38 13.5176C38 13.277 37.9803 13.041 37.9443 12.8108ZM36.155 12.5H30.3381L29.6388 7.79928H34.2404L36.155 12.5ZM4.29771 4.58294H33.6593V6.16647H4.29771V4.58294ZM28.9731 14.0829L29.0589 14.6575L28.5905 15.2808C28.0292 16.0288 27.171 16.4579 26.2375 16.4579C25.304 16.4579 24.4458 16.0288 23.8846 15.2808L23.4067 14.6442L23.3789 14.0829H28.9731ZM23.3012 12.5L23.0705 7.79928H28.0373L28.7378 12.5H23.3012ZM21.7937 14.0829L21.8215 14.6569L21.3518 15.2808C20.7906 16.0288 19.9324 16.4579 19 16.4579C18.0653 16.4579 17.2083 16.0288 16.6459 15.2808L16.1657 14.6401L16.1936 14.0829H21.7937ZM16.2736 12.5L16.5114 7.79928H21.4863L21.716 12.5H16.2736ZM9.27037 12.5L9.96149 7.79928H14.9272L14.6883 12.5H9.27037ZM14.6071 14.0829L14.5781 14.6633L14.1143 15.2808C13.5518 16.0288 12.6948 16.4579 11.7613 16.4579C10.8278 16.4579 9.97077 16.0288 9.40834 15.2808L8.95145 14.6726L9.03843 14.0829H14.6071ZM3.75851 7.79928H8.36126L7.67014 12.5H1.84396L3.75851 7.79928ZM1.63741 14.0829H7.43806L7.31396 14.6981L6.87674 15.2809C6.31431 16.0289 5.4573 16.4579 4.52259 16.4579C3.09514 16.4579 1.90186 15.4351 1.63741 14.0829ZM30.875 33.8756H24.5409V28.3323H25.3329C25.7702 28.3323 26.125 27.9786 26.125 27.5415C26.125 27.1043 25.7702 26.7506 25.3329 26.7506H24.5409V21.2073H30.875V33.8756ZM34.041 33.8756H34.0409H32.4579V19.6256H22.9579V33.8756H3.95794V18.0061C4.1423 18.0293 4.33252 18.0415 4.52267 18.0415C6.00244 18.0415 7.31745 17.3307 8.14202 16.2319C8.9677 17.3307 10.2816 18.0415 11.7614 18.0415C13.2411 18.0415 14.555 17.3307 15.3807 16.2319C16.2052 17.3307 17.5203 18.0415 19.0001 18.0415C20.4798 18.0415 21.7926 17.3307 22.6182 16.2319C23.4439 17.3307 24.7578 18.0415 26.2376 18.0415C27.7174 18.0415 29.0313 17.3307 29.8569 16.2319C30.6826 17.3307 31.9953 18.0415 33.4751 18.0415C33.6676 18.0415 33.8555 18.0294 34.041 18.0061V33.8756ZM33.475 16.4579C32.5426 16.4579 31.6844 16.0289 31.1231 15.2809L30.6627 14.6698L30.5735 14.083H36.3602C36.0958 15.4351 34.9037 16.4579 33.475 16.4579Z" fill="#C6F7E2"/>
<path d="M5.54102 19.397V30.4787H21.3751V19.397H5.54102ZM19.791 28.897H7.12514V20.9787H19.791V28.897Z" fill="#C6F7E2"/>
<path d="M18.2021 24.9377C17.983 24.9377 17.7847 25.0259 17.642 25.1697L16.0591 26.7538C15.9152 26.8965 15.8271 27.0948 15.8271 27.3127C15.8271 27.75 16.182 28.1036 16.618 28.1036C16.8372 28.1036 17.0355 28.0154 17.1782 27.8717L18.7611 26.2899C18.9049 26.1461 18.993 25.9479 18.993 25.7287C18.993 25.2926 18.6394 24.9377 18.2021 24.9377Z" fill="#C6F7E2"/>
<path d="M18.2022 21.772C17.983 21.772 17.7847 21.8601 17.6421 22.0039L12.8921 26.7527C12.7494 26.8954 12.6602 27.0948 12.6602 27.3128C12.6602 27.7501 13.015 28.1037 13.4522 28.1037C13.6703 28.1037 13.8685 28.0156 14.0112 27.8718L18.7612 23.123C18.905 22.9803 18.9931 22.7809 18.9931 22.5628C18.9931 22.1256 18.6394 21.772 18.2022 21.772Z" fill="#C6F7E2"/>
</svg>
