<svg width="111" height="111" viewBox="0 0 111 111" fill="none" xmlns="http://www.w3.org/2000/svg">
<g clip-path="url(#clip0)">
<path d="M104.095 55.5C107.511 53.8016 109.554 50.0061 108.858 46.0583C108.162 42.1105 104.944 39.2428 101.153 38.8151C103.782 36.0509 104.404 31.7855 102.4 28.3139C100.395 24.8422 96.3904 23.2482 92.6819 24.143C94.207 20.6461 93.3326 16.4253 90.2618 13.8486C87.1909 11.2718 82.8823 11.1436 79.7036 13.2529C79.9407 9.4453 77.6755 5.7782 73.9084 4.40714C70.1414 3.03608 66.049 4.3892 63.7831 7.45839C62.7037 3.79939 59.3208 1.12793 55.3122 1.12793C51.3036 1.12793 47.9207 3.79917 46.8412 7.45817C44.5754 4.38898 40.483 3.03586 36.7159 4.40692C32.9488 5.77798 30.6836 9.4453 30.9208 13.2526C27.742 11.1436 23.4334 11.2716 20.3625 13.8484C17.2916 16.4253 16.4173 20.6461 17.9424 24.143C14.234 23.2482 10.2291 24.8424 8.22468 28.3139C6.22026 31.7857 6.84224 36.0509 9.47125 38.8151C5.68033 39.2428 2.46238 42.1103 1.76623 46.0583C1.07009 50.0061 3.11345 53.8016 6.52939 55.5C3.11345 57.1983 1.07009 60.9938 1.76623 64.9416C2.46238 68.8894 5.68055 71.7571 9.47147 72.1848C6.84246 74.949 6.22048 79.2145 8.22468 82.686C10.2291 86.1577 14.234 87.7517 17.9424 86.8569C16.4173 90.3538 17.2918 94.5746 20.3625 97.1514C23.4334 99.7281 27.742 99.8563 30.9208 97.7471C30.6836 101.555 32.9488 105.222 36.7159 106.593C40.4828 107.964 44.5754 106.611 46.8412 103.542C47.9207 107.201 51.3036 109.872 55.3122 109.872C59.3208 109.872 62.7037 107.201 63.7831 103.542C66.049 106.611 70.1414 107.964 73.9084 106.593C77.6755 105.222 79.9407 101.554 79.7036 97.7471C82.8823 99.8563 87.1909 99.7281 90.2618 97.1514C93.3328 94.5746 94.207 90.3538 92.6819 86.8569C96.3904 87.7515 100.395 86.1575 102.4 82.686C104.404 79.2145 103.782 74.949 101.153 72.1848C104.944 71.7571 108.162 68.8896 108.858 64.9416C109.554 60.9938 107.511 57.1983 104.095 55.5Z" fill="#65D6AD"/>
<path d="M104.094 55.4998C107.511 53.8023 109.554 50.0066 108.857 46.0584C108.162 42.1101 104.944 39.2427 101.152 38.8156C103.782 36.0505 104.403 31.7864 102.399 28.3131C100.394 24.842 96.3892 23.2472 92.6806 24.1426C94.2059 20.6455 93.3321 16.4249 90.262 13.8493C89.0767 12.8556 87.7061 12.226 86.2897 11.9514C89.1712 14.5494 90.3804 19.8503 88.961 25.028C88.6381 26.2057 89.5644 27.3643 90.7799 27.2479C93.5955 26.9784 96.2884 27.5179 97.8106 30.1082C99.6499 33.238 98.8047 35.9026 97.1587 38.2048C96.4444 39.2037 96.9353 40.5868 98.1204 40.9088C100.867 41.6553 103.253 43.1537 104.006 46.0689C104.929 49.6436 102.724 52.4597 100.409 54.4492C99.5672 55.1725 99.6387 56.4878 100.53 57.1483C102.971 58.956 104.685 61.6021 104.131 64.7378C103.602 67.7418 101.726 69.1815 99.1885 69.8864C98.1106 70.1859 97.5754 71.4097 98.1241 72.3846C99.5352 74.8917 99.7684 77.9056 98.2132 80.5989C96.65 83.3084 94.0978 83.9873 91.2892 83.7289C90.1616 83.6252 89.2491 84.6414 89.4585 85.7541C89.8612 87.8951 89.866 90.4716 87.5656 92.8376C85.3764 95.0894 81.844 95.1072 78.8879 93.9943C77.8175 93.5913 76.6672 94.2975 76.5497 95.4351C76.1594 99.2155 74.4107 103.859 69.7235 104.506C68.0649 104.735 66.5226 105.175 64.9929 104.87C67.3419 106.973 70.741 107.746 73.9091 106.593C77.6744 105.221 79.9405 101.554 79.7029 97.7471C82.8819 99.8563 87.1898 99.7277 90.262 97.1501C93.3321 94.5747 94.2059 90.3541 92.6806 86.8567C96.3892 87.7524 100.394 86.1573 102.399 82.6862C104.403 79.213 103.782 74.9488 101.152 72.1838C104.944 71.7567 108.162 68.8892 108.857 64.941C109.554 60.993 107.511 57.1973 104.094 55.4998Z" fill="#8EEDC7"/>
<path d="M55.3121 97.7652C78.6546 97.7652 97.5774 78.8424 97.5774 55.4999C97.5774 32.1574 78.6546 13.2346 55.3121 13.2346C31.9697 13.2346 13.0469 32.1574 13.0469 55.4999C13.0469 78.8424 31.9697 97.7652 55.3121 97.7652Z" fill="#C6F7E2"/>
<path d="M97.5767 55.4998C97.5767 78.8428 78.6547 97.7648 55.3117 97.7648C47.2083 97.7648 39.6343 95.4834 33.2019 91.5265C38.7365 94.187 44.9398 95.6775 51.4897 95.6775C74.8327 95.6775 93.7547 76.7555 93.7547 53.4124C93.7547 38.175 85.6927 24.8204 73.5995 17.3857C87.7846 24.2036 97.5767 38.7066 97.5767 55.4998Z" fill="#C6F7E2"/>
<path d="M50.2192 42.8742C53.2709 42.8742 55.7448 40.4003 55.7448 37.3486C55.7448 34.2969 53.2709 31.823 50.2192 31.823C47.1675 31.823 44.6936 34.2969 44.6936 37.3486C44.6936 40.4003 47.1675 42.8742 50.2192 42.8742Z" fill="#147D64"/>
<path d="M55.7456 37.3492C55.7456 40.3998 53.2703 42.875 50.2197 42.875C47.836 42.875 45.8053 41.365 45.0295 39.2515C45.6331 39.4781 46.2868 39.6024 46.9688 39.6024C50.0215 39.6024 52.4946 37.1293 52.4946 34.0766C52.4946 33.4075 52.3769 32.767 52.159 32.1743C54.2529 32.9586 55.7456 34.9786 55.7456 37.3492Z" fill="#65D6AD"/>
<path d="M59.2612 46.1459C62.3129 46.1459 64.7868 43.672 64.7868 40.6203C64.7868 37.5686 62.3129 35.0947 59.2612 35.0947C56.2095 35.0947 53.7356 37.5686 53.7356 40.6203C53.7356 43.672 56.2095 46.1459 59.2612 46.1459Z" fill="#27AB83"/>
<path d="M64.7861 40.62C64.7861 43.6727 62.3131 46.1458 59.2603 46.1458C56.8787 46.1458 54.8478 44.638 54.0723 42.5244C54.6759 42.751 55.3296 42.8753 56.0115 42.8753C59.0643 42.8753 61.5373 40.4001 61.5373 37.3495C61.5373 36.6805 61.4174 36.0399 61.1995 35.4451C63.2956 36.2294 64.7861 38.2513 64.7861 40.62Z" fill="#65D6AD"/>
<path d="M49.4065 65.6599C50.2499 65.9815 51.1941 65.5577 51.5153 64.7143L52.3142 62.6167H57.7985L58.5885 64.7099C58.8355 65.3643 59.4572 65.7675 60.1177 65.7675C60.3093 65.7675 60.5045 65.7334 60.6944 65.6618C61.5389 65.3433 61.965 64.4004 61.6465 63.5559L56.8728 50.9064C56.8671 50.8915 56.8612 50.8764 56.8551 50.8615C56.5569 50.1369 55.8584 49.6692 55.0749 49.6692C55.0743 49.6692 55.0736 49.6692 55.0728 49.6692C54.2885 49.6701 53.5899 50.1398 53.293 50.8654C53.288 50.8777 53.2832 50.89 53.2784 50.9024L48.461 63.5513C48.1398 64.3945 48.5629 65.3387 49.4065 65.6599ZM55.069 55.3838L56.565 59.3482H53.5591L55.069 55.3838Z" fill="#014D40"/>
<path d="M65.5019 49.767C64.8191 49.9799 64.354 50.6119 64.354 51.3271V64.1326C64.354 65.0353 65.0856 65.7669 65.9883 65.7669C66.8909 65.7669 67.6225 65.0353 67.6225 64.1326V56.5694L73.3021 64.7938C73.7808 65.486 74.58 65.7806 75.3389 65.5435C76.1127 65.302 76.6126 64.5785 76.6126 63.6844L76.4927 51.2871C76.484 50.3844 75.7552 49.6581 74.8427 49.6686C73.9403 49.6773 73.2157 50.4161 73.2244 51.3186L73.299 59.0376L67.3328 50.3982C66.9266 49.8101 66.1847 49.5544 65.5019 49.767Z" fill="#014D40"/>
<path d="M80.9848 49.6689C80.0824 49.6689 79.3506 50.4005 79.3506 51.3032V64.1328C79.3506 65.0354 80.0822 65.767 80.9848 65.767C81.8875 65.767 82.6191 65.0354 82.6191 64.1328V60.8827L87.207 65.3089C87.5242 65.615 87.9331 65.767 88.3416 65.767C88.7697 65.767 89.1972 65.5997 89.5179 65.2674C90.1445 64.6178 90.1261 63.5834 89.4766 62.9567L83.7792 57.4599L88.9924 52.6681C89.6568 52.0573 89.7004 51.0238 89.0898 50.3592C88.4792 49.6945 87.4455 49.6512 86.7806 50.2618L82.6195 54.0867V51.303C82.6189 50.4005 81.8873 49.6689 80.9848 49.6689Z" fill="#014D40"/>
<path d="M35.239 49.6689C34.3365 49.6689 33.6047 50.4005 33.6047 51.3032V64.1328C33.6047 65.0354 34.3363 65.767 35.239 65.767C36.1416 65.767 36.8732 65.0354 36.8732 64.1328V59.1323H42.4833V64.1328C42.4833 65.0354 43.2148 65.767 44.1175 65.767C45.0202 65.767 45.7518 65.0354 45.7518 64.1328V51.3032C45.7518 50.4005 45.0202 49.6689 44.1175 49.6689C43.2148 49.6689 42.4833 50.4005 42.4833 51.3032V55.864H36.8732V51.3032C36.873 50.4005 36.1414 49.6689 35.239 49.6689Z" fill="#014D40"/>
<path d="M25.8111 65.767C26.7135 65.767 27.4453 65.0354 27.4453 64.1328V52.9374H29.3682C30.2706 52.9374 31.0024 52.2059 31.0024 51.3032C31.0024 50.4005 30.2708 49.6689 29.3682 49.6689H22.2829C21.3805 49.6689 20.6487 50.4005 20.6487 51.3032C20.6487 52.2059 21.3803 52.9374 22.2829 52.9374H24.1771V64.1328C24.1769 65.0354 24.9084 65.767 25.8111 65.767Z" fill="#014D40"/>
<path d="M40.3046 84.9476H40.3086C41.2093 84.9476 41.9404 84.2186 41.9426 83.3175L41.9568 77.5222L45.5872 71.9454C46.0796 71.1889 45.8655 70.1768 45.1092 69.6843C44.3529 69.1915 43.3404 69.4058 42.8479 70.1624L40.3217 74.0432L37.7662 70.1291C37.2727 69.3732 36.2599 69.1615 35.5043 69.6542C34.7487 70.1475 34.536 71.1602 35.0296 71.9161L38.6883 77.5198L38.6741 83.3094C38.6722 84.2119 39.402 84.9454 40.3046 84.9476Z" fill="#014D40"/>
<path d="M65.6858 69.3882C64.7833 69.3882 64.0515 70.1198 64.0515 71.0224V79.48C64.0515 81.37 64.954 82.9052 66.7339 84.0426C67.6714 84.6416 68.7287 84.9461 69.8773 84.9476H69.8862C70.8747 84.9476 71.8029 84.7326 72.6448 84.3084C75.3024 82.9701 75.8603 80.939 75.8603 79.4711V71.0224C75.8603 70.1198 75.1287 69.3882 74.2261 69.3882C73.3234 69.3882 72.5918 70.1198 72.5918 71.0224V79.4711C72.5918 80.0318 72.4308 80.7566 71.1742 81.3893C70.7869 81.5842 70.3658 81.6792 69.8862 81.6792C69.8847 81.6792 69.883 81.6792 69.8814 81.6792C69.3579 81.6785 68.9039 81.5505 68.4935 81.2882C67.5191 80.6658 67.3196 80.1151 67.3196 79.4798V71.0222C67.32 70.1198 66.5884 69.3882 65.6858 69.3882Z" fill="#014D40"/>
<path d="M53.9986 84.9476C58.2883 84.9476 61.7782 81.4578 61.7782 77.1678C61.7782 72.8781 58.2883 69.3882 53.9986 69.3882C49.7089 69.3882 46.219 72.8781 46.219 77.1678C46.219 81.4578 49.7089 84.9476 53.9986 84.9476ZM53.9986 72.6565C56.4861 72.6565 58.5097 74.6803 58.5097 77.1678C58.5097 79.6553 56.4861 81.6792 53.9986 81.6792C51.5109 81.6792 49.4873 79.6553 49.4873 77.1678C49.4873 74.6803 51.5111 72.6565 53.9986 72.6565Z" fill="#014D40"/>
<path d="M107.011 55.4999C109.729 53.1288 111.112 49.4311 110.467 45.7745C109.823 42.1181 107.259 39.1161 103.893 37.8181C105.637 34.6601 105.671 30.7123 103.815 27.497C101.958 24.2812 98.5227 22.337 94.9156 22.2687C95.4743 18.7047 94.1564 14.9833 91.3121 12.5967C88.4689 10.2108 84.5778 9.55859 81.1658 10.7262C81.0579 10.1696 80.9039 9.61985 80.7042 9.0797C80.3911 8.23326 79.451 7.80008 78.6048 8.11359C77.7582 8.42643 77.3257 9.36651 77.6387 10.2129C77.989 11.1605 78.1349 12.1491 78.0725 13.1513C78.0338 13.7702 78.3493 14.3578 78.8864 14.6681C79.4237 14.9783 80.0901 14.9575 80.6071 14.6147C83.2457 12.8641 86.7839 13.0638 89.2114 15.1006C91.6388 17.1376 92.45 20.5872 91.1841 23.4899C90.9361 24.0585 91.0314 24.7186 91.4303 25.1938C91.8289 25.6689 92.4622 25.8772 93.0654 25.7319C96.1435 24.9888 99.4 26.3872 100.985 29.1315C102.569 31.8756 102.151 35.395 99.969 37.6893C99.5415 38.1389 99.4053 38.7915 99.6175 39.3745C99.8297 39.9573 100.353 40.3699 100.97 40.4395C104.117 40.7943 106.699 43.2219 107.249 46.3422C107.799 49.4631 106.203 52.627 103.367 54.0368C102.812 54.3131 102.461 54.8799 102.461 55.5001C102.461 56.1204 102.812 56.6872 103.367 56.9635C106.203 58.3735 107.799 61.5374 107.249 64.6578C106.699 67.7786 104.117 70.2062 100.97 70.5608C100.353 70.6304 99.8297 71.043 99.6175 71.6258C99.4053 72.2086 99.5413 72.8614 99.9688 73.311C102.151 75.6057 102.569 79.1247 100.984 81.8688C99.4 84.6131 96.1431 86.0117 93.0652 85.2684C92.462 85.1237 91.8287 85.3316 91.43 85.8065C91.0312 86.2817 90.9361 86.9418 91.1839 87.5104C92.4498 90.4131 91.6388 93.8627 89.2112 95.8997C86.7837 97.9365 83.2455 98.136 80.6068 96.3858C80.0901 96.0428 79.4235 96.0222 78.8862 96.3322C78.3491 96.6424 78.0336 97.2301 78.0723 97.849C78.2692 101.01 76.3269 103.974 73.3494 105.058C70.3715 106.141 66.9785 105.119 65.0979 102.571C64.7293 102.072 64.1095 101.823 63.4993 101.933C62.8885 102.04 62.3912 102.485 62.2158 103.079C61.3197 106.117 58.4809 108.238 55.3121 108.238C52.1434 108.238 49.3046 106.117 48.4085 103.079C48.233 102.485 47.7357 102.04 47.1249 101.933C46.5145 101.824 45.8948 102.072 45.5263 102.571C43.6458 105.119 40.2526 106.141 37.2748 105.058C34.2971 103.974 32.355 101.01 32.5519 97.849C32.5906 97.2301 32.2752 96.6424 31.7381 96.3322C31.201 96.022 30.5344 96.0428 30.0174 96.3858C27.3788 98.1367 23.8405 97.9365 21.4132 95.8997C18.9859 93.8627 18.1745 90.4131 19.4405 87.5104C19.6886 86.9418 19.5933 86.2817 19.1944 85.8065C18.7956 85.3311 18.1622 85.1231 17.5593 85.2684C14.4811 86.0113 11.2245 84.6131 9.64011 81.8688C8.05574 79.1247 8.47338 75.6053 10.6557 73.311C11.0831 72.8614 11.2194 72.2088 11.0072 71.6258C10.795 71.043 10.2711 70.6304 9.65455 70.5608C6.50791 70.2062 3.92594 67.7786 3.37572 64.6578C2.8255 61.5372 4.42146 58.3733 7.257 56.9635C7.81247 56.6874 8.1636 56.1204 8.1636 55.5001C8.1636 54.8799 7.81247 54.3131 7.257 54.0368C4.42146 52.6268 2.82528 49.4628 3.37572 46.3425C3.92594 43.2219 6.50791 40.7946 9.65455 40.4395C10.2711 40.3699 10.7948 39.9573 11.007 39.3745C11.2192 38.7915 11.0829 38.1389 10.6554 37.6893C8.47316 35.3948 8.05552 31.8756 9.63989 29.1315C11.2243 26.3872 14.4811 24.989 17.5591 25.7319C18.1629 25.8772 18.7956 25.6689 19.1942 25.1938C19.593 24.7186 19.6882 24.0585 19.4403 23.4899C18.1745 20.5872 18.9857 17.1376 21.413 15.1006C23.8403 13.064 27.3786 12.8638 30.0172 14.6147C30.5342 14.9573 31.2006 14.9781 31.7379 14.6681C32.275 14.3578 32.5904 13.7702 32.5517 13.1513C32.3548 9.99067 34.2971 7.02672 37.2746 5.94269C40.2521 4.85822 43.6455 5.88143 45.5261 8.42884C45.8945 8.92808 46.5139 9.17574 47.1247 9.06766C47.7355 8.96003 48.2328 8.51569 48.4083 7.92063C49.3044 4.88338 52.1434 2.76214 55.3121 2.76214C58.4809 2.76214 61.3197 4.88338 62.2158 7.92063C62.3912 8.51548 62.8885 8.95981 63.4993 9.06766C64.1099 9.17596 64.7295 8.92808 65.0979 8.42884C66.9785 5.88121 70.3719 4.8591 73.3494 5.94269C74.197 6.25028 75.1353 5.81405 75.444 4.96608C75.7527 4.11789 75.3153 3.18022 74.4671 2.87131C70.9781 1.60133 67.0962 2.32088 64.2893 4.58694C62.4267 1.49719 59.025 -0.506348 55.3121 -0.506348C51.5993 -0.506348 48.1976 1.49719 46.3349 4.58672C43.5278 2.32088 39.6463 1.60198 36.1569 2.87131C32.6679 4.14152 30.1568 7.18751 29.4628 10.7277C26.0495 9.55859 22.1562 10.2103 19.3121 12.5969C16.4678 14.9835 15.1499 18.7049 15.7087 22.269C12.1018 22.3374 8.6659 24.2815 6.80938 27.4972C4.95286 30.7128 4.98721 34.6606 6.73128 37.8184C3.36544 39.1163 0.801399 42.1184 0.15667 45.7747C-0.488058 49.4311 0.894597 53.1288 3.61353 55.4999C0.894597 57.871 -0.488058 61.5687 0.15667 65.2253C0.801618 68.8819 3.36522 71.8839 6.73128 73.1819C4.98721 76.34 4.95286 80.2875 6.80938 83.5031C8.6659 86.7188 12.1015 88.6631 15.7087 88.7313C15.1499 92.2954 16.4678 96.0167 19.3121 98.4034C22.1566 100.79 26.0502 101.441 29.4628 100.273C30.1566 103.813 32.6679 106.859 36.1569 108.129C39.6459 109.399 43.5276 108.679 46.3347 106.413C48.1976 109.503 51.5993 111.506 55.3121 111.506C59.025 111.506 62.4267 109.503 64.2893 106.413C67.0964 108.679 70.9783 109.398 74.4674 108.129C77.9564 106.859 80.4677 103.813 81.1614 100.272C84.5743 101.442 88.4678 100.79 91.3121 98.4029C94.1564 96.0163 95.4743 92.295 94.9156 88.7309C98.5225 88.6624 101.959 86.7184 103.815 83.5026C105.671 80.2873 105.637 76.3395 103.893 73.1815C107.259 71.8835 109.823 68.8815 110.468 65.2247C111.112 61.5687 109.73 57.871 107.011 55.4999Z" fill="#014D40"/>
<path d="M27.3447 89.339C35.186 95.8268 45.1183 99.3996 55.3124 99.3996C79.5187 99.3996 99.2119 79.7064 99.2119 55.5001C99.2119 31.2938 79.5187 11.6006 55.3124 11.6006C31.106 11.6006 11.4128 31.2938 11.4128 55.5001C11.4128 65.826 15.0686 75.8577 21.7064 83.7469C22.2872 84.4376 23.3183 84.5262 24.009 83.9454C24.6997 83.3643 24.7885 82.3332 24.2072 81.6428C18.0642 74.3416 14.6811 65.0573 14.6811 55.5001C14.6811 33.0961 32.9081 14.8691 55.3121 14.8691C77.7162 14.8691 95.9434 33.0961 95.9434 55.5001C95.9434 77.9041 77.7164 96.1311 55.3124 96.1311C45.877 96.1311 36.6846 92.8246 29.4283 86.8207C28.7326 86.2456 27.7028 86.3425 27.1274 87.038C26.552 87.7335 26.6492 88.7637 27.3447 89.339Z" fill="#014D40"/>
<path d="M50.9162 30.2234C50.6867 30.2011 50.4543 30.1891 50.2189 30.1891C46.2712 30.1891 43.0593 33.4009 43.0593 37.3487C43.0593 41.2967 46.2712 44.5085 50.2189 44.5085C51.1805 44.5085 52.0982 44.3175 52.9368 43.9721C54.1411 46.2353 56.5236 47.7803 59.2611 47.7803C63.2091 47.7803 66.4209 44.5685 66.4209 40.6207C66.4209 37.4677 64.3717 34.7864 61.5357 33.8334C61.9218 32.302 62.0091 30.3665 61.7912 28.042C61.695 27.0151 61.5536 26.0639 61.4182 25.2872C61.991 25.3413 62.5869 25.3695 63.2148 25.3695C64.1078 25.3695 65.0637 25.315 66.1004 25.2067C66.9981 25.1131 67.6498 24.3093 67.5562 23.4119C67.4625 22.514 66.659 21.8606 65.7611 21.9562C63.4992 22.1922 61.7309 22.1413 60.1968 21.7949C58.3862 21.3867 56.8511 20.5173 55.8745 19.3473C55.2963 18.6546 54.2656 18.5619 53.5728 19.1401C52.8799 19.7185 52.7871 20.749 53.3654 21.442C54.3888 22.6681 55.7887 23.6578 57.4168 24.3307C56.5864 26.0483 54.5844 29.2687 50.9162 30.2234ZM52.1013 40.6207C52.1013 40.6638 52.1037 40.7062 52.1046 40.7489C51.546 41.0611 50.9035 41.24 50.2189 41.24C48.0732 41.24 46.3276 39.4944 46.3276 37.3487C46.3276 35.2032 48.0732 33.4574 50.2189 33.4574C51.8698 33.4574 53.2803 34.4924 53.8447 35.9461C52.7598 37.2015 52.1013 38.8351 52.1013 40.6207ZM59.2596 36.7294C59.2605 36.7294 59.2613 36.7291 59.2622 36.7291C61.4075 36.7298 63.1525 38.4752 63.1525 40.6205C63.1525 42.766 61.4068 44.5118 59.2611 44.5118C57.1154 44.5118 55.3698 42.7662 55.3698 40.6205C55.3698 38.4756 57.1141 36.7307 59.2585 36.7291C59.2587 36.7294 59.2591 36.7294 59.2596 36.7294ZM58.5654 28.6725C58.7761 31.2488 58.5197 32.7177 58.22 33.5372C57.6347 33.6228 57.0725 33.7798 56.5417 33.9986C56.1392 33.2414 55.6058 32.5639 54.9698 31.9984C56.4835 31.0548 57.6647 29.8502 58.5654 28.6725Z" fill="#014D40"/>
</g>
<defs>
<clipPath id="clip0">
<rect width="111" height="111" fill="white"/>
</clipPath>
</defs>
</svg>
