<svg width="53" height="16" viewBox="0 0 53 16" fill="none" xmlns="http://www.w3.org/2000/svg">
<path d="M3.178 7.462L2.59418 8.27388C2.82967 8.44322 3.12708 8.50197 3.40927 8.43489C3.69146 8.36781 3.93063 8.1815 4.06472 7.92431L3.178 7.462ZM4.276 5.356L5.1596 4.88776C4.98567 4.55953 4.64412 4.35476 4.27265 4.356C3.90118 4.35725 3.56101 4.5643 3.38928 4.89369L4.276 5.356ZM5.392 7.462L4.5084 7.93023C4.64366 8.1855 4.88271 8.36979 5.16399 8.43566C5.44526 8.50153 5.74128 8.44254 5.97582 8.27388L5.392 7.462ZM6.994 6.31L7.57782 7.12188C7.80834 6.95612 7.95752 6.70019 7.98816 6.41792C8.0188 6.13565 7.92801 5.85367 7.73844 5.64231L6.994 6.31ZM5.428 4.564L5.27162 3.5763C4.90982 3.63359 4.60831 3.88409 4.48569 4.22926C4.36308 4.57442 4.43899 4.95901 4.68356 5.23169L5.428 4.564ZM7.588 4.222L7.74439 5.2097C8.02804 5.16478 8.27869 5.00009 8.4325 4.75756C8.5863 4.51503 8.62841 4.21809 8.5481 3.94236L7.588 4.222ZM7.048 2.368L8.0081 2.08836C7.92694 1.8097 7.72872 1.58005 7.46491 1.45905C7.20109 1.33805 6.89773 1.33763 6.63358 1.45791L7.048 2.368ZM5.032 3.286L4.0419 3.14567C3.99064 3.50728 4.14061 3.86807 4.43309 4.08681C4.72556 4.30555 5.11403 4.34744 5.44642 4.19609L5.032 3.286ZM5.356 1L6.34611 1.14033C6.38676 0.853501 6.30102 0.563131 6.11109 0.344382C5.92116 0.125633 5.6457 0 5.356 0V1ZM3.25 1V0C2.96165 0 2.68733 0.124471 2.49745 0.34147C2.30756 0.558471 2.22058 0.846871 2.25884 1.13267L3.25 1ZM3.556 3.286L3.14159 4.19609C3.47271 4.34687 3.85961 4.3059 4.15182 4.08912C4.44403 3.87234 4.59543 3.51395 4.54716 3.15332L3.556 3.286ZM1.54 2.368L1.95442 1.45791C1.69027 1.33763 1.38691 1.33805 1.1231 1.45905C0.859284 1.58005 0.661064 1.8097 0.579904 2.08836L1.54 2.368ZM1 4.222L0.0398998 3.94236C-0.0403462 4.21787 0.00163276 4.51458 0.155161 4.75701C0.308688 4.99945 0.558964 5.16425 0.842334 5.20949L1 4.222ZM3.142 4.564L3.88644 5.23169C4.13086 4.95918 4.20684 4.5749 4.08453 4.22987C3.96221 3.88484 3.66115 3.63422 3.29967 3.57651L3.142 4.564ZM1.576 6.31L0.831564 5.64231C0.641994 5.85367 0.551204 6.13565 0.581844 6.41792C0.612484 6.70019 0.761664 6.95612 0.992184 7.12188L1.576 6.31ZM4.06472 7.92431L5.16272 5.81831L3.38928 4.89369L2.29128 6.99969L4.06472 7.92431ZM3.3924 5.82423L4.5084 7.93023L6.2756 6.99377L5.1596 4.88776L3.3924 5.82423ZM5.97582 8.27388L7.57782 7.12188L6.41018 5.49812L4.80818 6.65012L5.97582 8.27388ZM7.73844 5.64231L6.17244 3.89631L4.68356 5.23169L6.24956 6.97769L7.73844 5.64231ZM5.58439 5.5517L7.74439 5.2097L7.43161 3.2343L5.27162 3.5763L5.58439 5.5517ZM8.5481 3.94236L8.0081 2.08836L6.0879 2.64764L6.6279 4.50164L8.5481 3.94236ZM6.63358 1.45791L4.61759 2.37591L5.44642 4.19609L7.46242 3.27809L6.63358 1.45791ZM6.02211 3.42633L6.34611 1.14033L4.3659 0.859671L4.0419 3.14567L6.02211 3.42633ZM5.356 0H3.25V2H5.356V0ZM2.25884 1.13267L2.56484 3.41867L4.54716 3.15332L4.24116 0.867321L2.25884 1.13267ZM3.97042 2.37591L1.95442 1.45791L1.12559 3.27809L3.14159 4.19609L3.97042 2.37591ZM0.579904 2.08836L0.0398998 3.94236L1.9601 4.50164L2.5001 2.64764L0.579904 2.08836ZM0.842334 5.20949L2.98433 5.55149L3.29967 3.57651L1.15767 3.23451L0.842334 5.20949ZM2.39756 3.89631L0.831564 5.64231L2.32044 6.97769L3.88644 5.23169L2.39756 3.89631ZM0.992184 7.12188L2.59418 8.27388L3.76182 6.65012L2.15982 5.49812L0.992184 7.12188ZM13.6252 14.374H12.6252C12.6252 14.9263 13.0729 15.374 13.6252 15.374V14.374ZM16.4512 14.374V15.374C17.0035 15.374 17.4512 14.9263 17.4512 14.374H16.4512ZM16.4512 11.818V10.818C15.8989 10.818 15.4512 11.2657 15.4512 11.818H16.4512ZM18.1432 11.818V12.818C18.6955 12.818 19.1432 12.3703 19.1432 11.818H18.1432ZM18.1432 9.73H19.1432C19.1432 9.17771 18.6955 8.73 18.1432 8.73V9.73ZM16.4512 9.73H15.4512C15.4512 10.2823 15.8989 10.73 16.4512 10.73V9.73ZM16.4512 1.504H17.4512C17.4512 0.951711 17.0035 0.504001 16.4512 0.504001V1.504ZM12.8692 1.504V0.504001C12.5182 0.504001 12.1929 0.687981 12.0121 0.988771L12.8692 1.504ZM7.30717 10.756L6.45012 10.2408C6.35659 10.3964 6.30717 10.5745 6.30717 10.756H7.30717ZM7.30717 11.818H6.30717C6.30717 12.3703 6.75489 12.818 7.30717 12.818V11.818ZM13.6252 11.818H14.6252C14.6252 11.2657 14.1775 10.818 13.6252 10.818V11.818ZM10.2232 9.73L9.35557 9.23275C9.1782 9.5422 9.1791 9.9227 9.35794 10.2314C9.5368 10.54 9.8665 10.73 10.2232 10.73V9.73ZM13.6792 3.7H14.6792C14.6792 3.2468 14.3744 2.85027 13.9365 2.73366C13.4985 2.61706 13.0369 2.80955 12.8116 3.20274L13.6792 3.7ZM13.6792 9.73V10.73C14.2315 10.73 14.6792 10.2823 14.6792 9.73H13.6792ZM13.6252 15.374H16.4512V13.374H13.6252V15.374ZM17.4512 14.374V11.818H15.4512V14.374H17.4512ZM16.4512 12.818H18.1432V10.818H16.4512V12.818ZM19.1432 11.818V9.73H17.1432V11.818H19.1432ZM18.1432 8.73H16.4512V10.73H18.1432V8.73ZM17.4512 9.73V1.504H15.4512V9.73H17.4512ZM16.4512 0.504001H12.8692V2.504H16.4512V0.504001ZM12.0121 0.988771L6.45012 10.2408L8.16422 11.2712L13.7262 2.01923L12.0121 0.988771ZM6.30717 10.756V11.818H8.30717V10.756H6.30717ZM7.30717 12.818H13.6252V10.818H7.30717V12.818ZM12.6252 11.818V14.374H14.6252V11.818H12.6252ZM11.0908 10.2273L14.5468 4.19725L12.8116 3.20274L9.35557 9.23275L11.0908 10.2273ZM12.6792 3.7V9.73H14.6792V3.7H12.6792ZM13.6792 8.73H10.2232V10.73H13.6792V8.73ZM25.4377 14.374H24.4377C24.4377 14.9263 24.8854 15.374 25.4377 15.374V14.374ZM28.2637 14.374V15.374C28.816 15.374 29.2637 14.9263 29.2637 14.374H28.2637ZM28.2637 11.818V10.818C27.7114 10.818 27.2637 11.2657 27.2637 11.818H28.2637ZM29.9557 11.818V12.818C30.508 12.818 30.9557 12.3703 30.9557 11.818H29.9557ZM29.9557 9.73H30.9557C30.9557 9.17771 30.508 8.73 29.9557 8.73V9.73ZM28.2637 9.73H27.2637C27.2637 10.2823 27.7114 10.73 28.2637 10.73V9.73ZM28.2637 1.504H29.2637C29.2637 0.951711 28.816 0.504001 28.2637 0.504001V1.504ZM24.6817 1.504V0.504001C24.3307 0.504001 24.0054 0.687981 23.8246 0.988771L24.6817 1.504ZM19.1197 10.756L18.2626 10.2408C18.1691 10.3964 18.1197 10.5745 18.1197 10.756H19.1197ZM19.1197 11.818H18.1197C18.1197 12.3703 18.5674 12.818 19.1197 12.818V11.818ZM25.4377 11.818H26.4377C26.4377 11.2657 25.99 10.818 25.4377 10.818V11.818ZM22.0357 9.73L21.1681 9.23275C20.9907 9.5422 20.9916 9.9227 21.1704 10.2314C21.3493 10.54 21.679 10.73 22.0357 10.73V9.73ZM25.4917 3.7H26.4917C26.4917 3.2468 26.1869 2.85027 25.749 2.73366C25.311 2.61706 24.8494 2.80955 24.6241 3.20274L25.4917 3.7ZM25.4917 9.73V10.73C26.044 10.73 26.4917 10.2823 26.4917 9.73H25.4917ZM25.4377 15.374H28.2637V13.374H25.4377V15.374ZM29.2637 14.374V11.818H27.2637V14.374H29.2637ZM28.2637 12.818H29.9557V10.818H28.2637V12.818ZM30.9557 11.818V9.73H28.9557V11.818H30.9557ZM29.9557 8.73H28.2637V10.73H29.9557V8.73ZM29.2637 9.73V1.504H27.2637V9.73H29.2637ZM28.2637 0.504001H24.6817V2.504H28.2637V0.504001ZM23.8246 0.988771L18.2626 10.2408L19.9767 11.2712L25.5387 2.01923L23.8246 0.988771ZM18.1197 10.756V11.818H20.1197V10.756H18.1197ZM19.1197 12.818H25.4377V10.818H19.1197V12.818ZM24.4377 11.818V14.374H26.4377V11.818H24.4377ZM22.9033 10.2273L26.3593 4.19725L24.6241 3.20274L21.1681 9.23275L22.9033 10.2273ZM24.4917 3.7V9.73H26.4917V3.7H24.4917ZM25.4917 8.73H22.0357V10.73H25.4917V8.73ZM37.2502 14.374H36.2502C36.2502 14.9263 36.6979 15.374 37.2502 15.374V14.374ZM40.0762 14.374V15.374C40.6285 15.374 41.0762 14.9263 41.0762 14.374H40.0762ZM40.0762 11.818V10.818C39.5239 10.818 39.0762 11.2657 39.0762 11.818H40.0762ZM41.7682 11.818V12.818C42.3205 12.818 42.7682 12.3703 42.7682 11.818H41.7682ZM41.7682 9.73H42.7682C42.7682 9.17771 42.3205 8.73 41.7682 8.73V9.73ZM40.0762 9.73H39.0762C39.0762 10.2823 39.5239 10.73 40.0762 10.73V9.73ZM40.0762 1.504H41.0762C41.0762 0.951711 40.6285 0.504001 40.0762 0.504001V1.504ZM36.4942 1.504V0.504001C36.1432 0.504001 35.8179 0.687981 35.6371 0.988771L36.4942 1.504ZM30.9322 10.756L30.0751 10.2408C29.9816 10.3964 29.9322 10.5745 29.9322 10.756H30.9322ZM30.9322 11.818H29.9322C29.9322 12.3703 30.3799 12.818 30.9322 12.818V11.818ZM37.2502 11.818H38.2502C38.2502 11.2657 37.8025 10.818 37.2502 10.818V11.818ZM33.8482 9.73L32.9806 9.23275C32.8032 9.5422 32.8041 9.9227 32.9829 10.2314C33.1618 10.54 33.4915 10.73 33.8482 10.73V9.73ZM37.3042 3.7H38.3042C38.3042 3.2468 37.9994 2.85027 37.5615 2.73366C37.1235 2.61706 36.6619 2.80955 36.4366 3.20274L37.3042 3.7ZM37.3042 9.73V10.73C37.8565 10.73 38.3042 10.2823 38.3042 9.73H37.3042ZM37.2502 15.374H40.0762V13.374H37.2502V15.374ZM41.0762 14.374V11.818H39.0762V14.374H41.0762ZM40.0762 12.818H41.7682V10.818H40.0762V12.818ZM42.7682 11.818V9.73H40.7682V11.818H42.7682ZM41.7682 8.73H40.0762V10.73H41.7682V8.73ZM41.0762 9.73V1.504H39.0762V9.73H41.0762ZM40.0762 0.504001H36.4942V2.504H40.0762V0.504001ZM35.6371 0.988771L30.0751 10.2408L31.7892 11.2712L37.3512 2.01923L35.6371 0.988771ZM29.9322 10.756V11.818H31.9322V10.756H29.9322ZM30.9322 12.818H37.2502V10.818H30.9322V12.818ZM36.2502 11.818V14.374H38.2502V11.818H36.2502ZM34.7158 10.2273L38.1718 4.19725L36.4366 3.20274L32.9806 9.23275L34.7158 10.2273ZM36.3042 3.7V9.73H38.3042V3.7H36.3042ZM37.3042 8.73H33.8482V10.73H37.3042V8.73ZM47.2045 12.592L46.215 12.4471C46.1729 12.7345 46.2579 13.026 46.4478 13.2459C46.6378 13.4657 46.9139 13.592 47.2045 13.592V12.592ZM49.0225 12.592V13.592C49.5187 13.592 49.94 13.228 50.0119 12.7369L49.0225 12.592ZM49.4365 9.766V8.766C48.9402 8.766 48.519 9.12999 48.447 9.6211L49.4365 9.766ZM51.2365 9.766V10.766C51.7887 10.766 52.2365 10.3183 52.2365 9.766H51.2365ZM51.2365 7.696H52.2365C52.2365 7.14372 51.7887 6.696 51.2365 6.696V7.696ZM49.7425 7.696L48.7529 7.55169C48.711 7.83905 48.7961 8.13044 48.986 8.3501C49.176 8.56976 49.4521 8.696 49.7425 8.696V7.696ZM49.9945 5.968V4.968C49.4979 4.968 49.0766 5.33235 49.0049 5.82369L49.9945 5.968ZM51.6865 5.968V6.968C52.2387 6.968 52.6865 6.52029 52.6865 5.968H51.6865ZM51.6865 3.97H52.6865C52.6865 3.41772 52.2387 2.97 51.6865 2.97V3.97ZM50.2825 3.97L49.294 3.81848C49.2498 4.10679 49.3337 4.40002 49.5237 4.62134C49.7136 4.84266 49.9908 4.97 50.2825 4.97V3.97ZM50.6605 1.504L51.6489 1.65551C51.6931 1.36721 51.6092 1.07398 51.4192 0.852661C51.2293 0.631341 50.9521 0.504001 50.6605 0.504001V1.504ZM48.8425 1.504V0.504001C48.3487 0.504001 47.9288 0.864411 47.854 1.35248L48.8425 1.504ZM48.4645 3.97V4.97C48.9582 4.97 49.3781 4.60959 49.4529 4.12151L48.4645 3.97ZM47.1145 3.97L46.1249 3.82555C46.083 4.11293 46.168 4.40435 46.358 4.62404C46.5479 4.84374 46.824 4.97 47.1145 4.97V3.97ZM47.4745 1.504L48.464 1.64845C48.5059 1.36107 48.4209 1.06965 48.2309 0.849961C48.041 0.630261 47.7649 0.504001 47.4745 0.504001V1.504ZM45.6565 1.504V0.504001C45.1627 0.504001 44.7428 0.864411 44.668 1.35248L45.6565 1.504ZM45.2785 3.97V4.97C45.7722 4.97 46.1921 4.60959 46.2669 4.12151L45.2785 3.97ZM43.5505 3.97V2.97C42.9982 2.97 42.5505 3.41772 42.5505 3.97H43.5505ZM43.5505 5.968H42.5505C42.5505 6.52029 42.9982 6.968 43.5505 6.968V5.968ZM44.9905 5.968L45.98 6.11231C46.0219 5.82495 45.9368 5.53356 45.7469 5.3139C45.5569 5.09424 45.2809 4.968 44.9905 4.968V5.968ZM44.7385 7.696V8.696C45.235 8.696 45.6563 8.33165 45.728 7.84031L44.7385 7.696ZM43.1005 7.696V6.696C42.5482 6.696 42.1005 7.14372 42.1005 7.696H43.1005ZM43.1005 9.766H42.1005C42.1005 10.3183 42.5482 10.766 43.1005 10.766V9.766ZM44.4325 9.766L45.4219 9.9109C45.464 9.6235 45.379 9.33195 45.1891 9.11215C44.9991 8.89234 44.723 8.766 44.4325 8.766V9.766ZM44.0185 12.592L43.029 12.4471C42.9869 12.7345 43.0719 13.026 43.2618 13.2459C43.4518 13.4657 43.7279 13.592 44.0185 13.592V12.592ZM45.8545 12.592V13.592C46.3507 13.592 46.772 13.228 46.8439 12.7369L45.8545 12.592ZM46.2685 9.766V8.766C45.7722 8.766 45.351 9.12999 45.279 9.6211L46.2685 9.766ZM47.6185 9.766L48.6079 9.9109C48.65 9.6235 48.565 9.33195 48.3751 9.11215C48.1851 8.89234 47.909 8.766 47.6185 8.766V9.766ZM46.8265 5.968V4.968C46.3299 4.968 45.9086 5.33235 45.8369 5.82369L46.8265 5.968ZM48.1765 5.968L49.166 6.11231C49.2079 5.82495 49.1228 5.53356 48.9329 5.3139C48.7429 5.09424 48.4669 4.968 48.1765 4.968V5.968ZM47.9245 7.696V8.696C48.421 8.696 48.8423 8.33165 48.914 7.84031L47.9245 7.696ZM46.5745 7.696L45.5849 7.55169C45.543 7.83905 45.6281 8.13044 45.818 8.3501C46.008 8.56976 46.2841 8.696 46.5745 8.696V7.696ZM47.2045 13.592H49.0225V11.592H47.2045V13.592ZM50.0119 12.7369L50.4259 9.9109L48.447 9.6211L48.033 12.4471L50.0119 12.7369ZM49.4365 10.766H51.2365V8.766H49.4365V10.766ZM52.2365 9.766V7.696H50.2365V9.766H52.2365ZM51.2365 6.696H49.7425V8.696H51.2365V6.696ZM50.732 7.84031L50.984 6.11231L49.0049 5.82369L48.7529 7.55169L50.732 7.84031ZM49.9945 6.968H51.6865V4.968H49.9945V6.968ZM52.6865 5.968V3.97H50.6865V5.968H52.6865ZM51.6865 2.97H50.2825V4.97H51.6865V2.97ZM51.2709 4.12151L51.6489 1.65551L49.672 1.35248L49.294 3.81848L51.2709 4.12151ZM50.6605 0.504001H48.8425V2.504H50.6605V0.504001ZM47.854 1.35248L47.476 3.81848L49.4529 4.12151L49.8309 1.65551L47.854 1.35248ZM48.4645 2.97H47.1145V4.97H48.4645V2.97ZM48.104 4.11445L48.464 1.64845L46.4849 1.35955L46.1249 3.82555L48.104 4.11445ZM47.4745 0.504001H45.6565V2.504H47.4745V0.504001ZM44.668 1.35248L44.29 3.81848L46.2669 4.12151L46.6449 1.65551L44.668 1.35248ZM45.2785 2.97H43.5505V4.97H45.2785V2.97ZM42.5505 3.97V5.968H44.5505V3.97H42.5505ZM43.5505 6.968H44.9905V4.968H43.5505V6.968ZM44.0009 5.82369L43.7489 7.55169L45.728 7.84031L45.98 6.11231L44.0009 5.82369ZM44.7385 6.696H43.1005V8.696H44.7385V6.696ZM42.1005 7.696V9.766H44.1005V7.696H42.1005ZM43.1005 10.766H44.4325V8.766H43.1005V10.766ZM43.443 9.6211L43.029 12.4471L45.0079 12.7369L45.4219 9.9109L43.443 9.6211ZM44.0185 13.592H45.8545V11.592H44.0185V13.592ZM46.8439 12.7369L47.2579 9.9109L45.279 9.6211L44.865 12.4471L46.8439 12.7369ZM46.2685 10.766H47.6185V8.766H46.2685V10.766ZM46.629 9.6211L46.215 12.4471L48.1939 12.7369L48.6079 9.9109L46.629 9.6211ZM46.8265 6.968H48.1765V4.968H46.8265V6.968ZM47.1869 5.82369L46.9349 7.55169L48.914 7.84031L49.166 6.11231L47.1869 5.82369ZM47.9245 6.696H46.5745V8.696H47.9245V6.696ZM47.564 7.84031L47.816 6.11231L45.8369 5.82369L45.5849 7.55169L47.564 7.84031Z" fill="#80A69F"/>
<path d="M3.178 7.462L4.276 5.356L5.392 7.462L6.994 6.31L5.428 4.564L7.588 4.222L7.048 2.368L5.032 3.286L5.356 1H3.25L3.556 3.286L1.54 2.368L1 4.222L3.142 4.564L1.576 6.31L3.178 7.462ZM13.6252 14.374H16.4512V11.818H18.1432V9.73H16.4512V1.504H12.8692L7.30717 10.756V11.818H13.6252V14.374ZM10.2232 9.73L13.6792 3.7V9.73H10.2232ZM25.4377 14.374H28.2637V11.818H29.9557V9.73H28.2637V1.504H24.6817L19.1197 10.756V11.818H25.4377V14.374ZM22.0357 9.73L25.4917 3.7V9.73H22.0357ZM37.2502 14.374H40.0762V11.818H41.7682V9.73H40.0762V1.504H36.4942L30.9322 10.756V11.818H37.2502V14.374ZM33.8482 9.73L37.3042 3.7V9.73H33.8482ZM47.2045 12.592H49.0225L49.4365 9.766H51.2365V7.696H49.7425L49.9945 5.968H51.6865V3.97H50.2825L50.6605 1.504H48.8425L48.4645 3.97H47.1145L47.4745 1.504H45.6565L45.2785 3.97H43.5505V5.968H44.9905L44.7385 7.696H43.1005V9.766H44.4325L44.0185 12.592H45.8545L46.2685 9.766H47.6185L47.2045 12.592ZM46.8265 5.968H48.1765L47.9245 7.696H46.5745L46.8265 5.968Z" fill="#347166"/>
</svg>
